G04 #@! TF.GenerationSoftware,KiCad,Pcbnew,10.0.0-10.0.0~ubuntu24.04.1*
G04 #@! TF.CreationDate,2026-04-12T20:50:04+01:00*
G04 #@! TF.ProjectId,ZetaBot,5a657461-426f-4742-9e6b-696361645f70,2*
G04 #@! TF.SameCoordinates,Original*
G04 #@! TF.FileFunction,Copper,L2,Bot*
G04 #@! TF.FilePolarity,Positive*
%FSLAX46Y46*%
G04 Gerber Fmt 4.6, Leading zero omitted, Abs format (unit mm)*
G04 Created by KiCad (PCBNEW 10.0.0-10.0.0~ubuntu24.04.1) date 2026-04-12 20:50:04*
%MOMM*%
%LPD*%
G01*
G04 APERTURE LIST*
%ADD10C,0.300000*%
G04 #@! TA.AperFunction,NonConductor*
%ADD11C,0.300000*%
G04 #@! TD*
G04 #@! TA.AperFunction,ComponentPad*
%ADD12C,3.000000*%
G04 #@! TD*
G04 #@! TA.AperFunction,ComponentPad*
%ADD13C,2.000000*%
G04 #@! TD*
G04 #@! TA.AperFunction,ComponentPad*
%ADD14R,2.000000X2.000000*%
G04 #@! TD*
G04 #@! TA.AperFunction,ComponentPad*
%ADD15O,2.000000X2.000000*%
G04 #@! TD*
G04 #@! TA.AperFunction,ComponentPad*
%ADD16C,2.250000*%
G04 #@! TD*
G04 #@! TA.AperFunction,ComponentPad*
%ADD17R,2.250000X2.250000*%
G04 #@! TD*
G04 #@! TA.AperFunction,ComponentPad*
%ADD18C,3.500000*%
G04 #@! TD*
G04 #@! TA.AperFunction,ComponentPad*
%ADD19R,1.800000X1.800000*%
G04 #@! TD*
G04 #@! TA.AperFunction,ComponentPad*
%ADD20C,1.800000*%
G04 #@! TD*
G04 #@! TA.AperFunction,ComponentPad*
%ADD21C,1.600000*%
G04 #@! TD*
G04 #@! TA.AperFunction,ComponentPad*
%ADD22R,3.500000X3.500000*%
G04 #@! TD*
G04 #@! TA.AperFunction,ComponentPad*
%ADD23R,2.400000X2.400000*%
G04 #@! TD*
G04 #@! TA.AperFunction,ComponentPad*
%ADD24C,2.400000*%
G04 #@! TD*
G04 #@! TA.AperFunction,ComponentPad*
%ADD25O,2.000000X1.800000*%
G04 #@! TD*
G04 #@! TA.AperFunction,ViaPad*
%ADD26C,2.000000*%
G04 #@! TD*
G04 #@! TA.AperFunction,ViaPad*
%ADD27C,2.500000*%
G04 #@! TD*
G04 #@! TA.AperFunction,Conductor*
%ADD28C,2.000000*%
G04 #@! TD*
G04 #@! TA.AperFunction,Conductor*
%ADD29C,1.000000*%
G04 #@! TD*
G04 #@! TA.AperFunction,Conductor*
%ADD30C,2.500000*%
G04 #@! TD*
G04 APERTURE END LIST*
D10*
D11*
X263545828Y-90411653D02*
X263688685Y-90840225D01*
X263688685Y-90840225D02*
X263831542Y-90983082D01*
X263831542Y-90983082D02*
X264117257Y-91125939D01*
X264117257Y-91125939D02*
X264545828Y-91125939D01*
X264545828Y-91125939D02*
X264831542Y-90983082D01*
X264831542Y-90983082D02*
X264974400Y-90840225D01*
X264974400Y-90840225D02*
X265117257Y-90554510D01*
X265117257Y-90554510D02*
X265117257Y-89411653D01*
X265117257Y-89411653D02*
X262117257Y-89411653D01*
X262117257Y-89411653D02*
X262117257Y-90411653D01*
X262117257Y-90411653D02*
X262260114Y-90697368D01*
X262260114Y-90697368D02*
X262402971Y-90840225D01*
X262402971Y-90840225D02*
X262688685Y-90983082D01*
X262688685Y-90983082D02*
X262974400Y-90983082D01*
X262974400Y-90983082D02*
X263260114Y-90840225D01*
X263260114Y-90840225D02*
X263402971Y-90697368D01*
X263402971Y-90697368D02*
X263545828Y-90411653D01*
X263545828Y-90411653D02*
X263545828Y-89411653D01*
X265117257Y-92411653D02*
X262117257Y-92411653D01*
X262117257Y-92411653D02*
X262117257Y-93554510D01*
X262117257Y-93554510D02*
X262260114Y-93840225D01*
X262260114Y-93840225D02*
X262402971Y-93983082D01*
X262402971Y-93983082D02*
X262688685Y-94125939D01*
X262688685Y-94125939D02*
X263117257Y-94125939D01*
X263117257Y-94125939D02*
X263402971Y-93983082D01*
X263402971Y-93983082D02*
X263545828Y-93840225D01*
X263545828Y-93840225D02*
X263688685Y-93554510D01*
X263688685Y-93554510D02*
X263688685Y-92411653D01*
D12*
G04 #@! TO.P,U2,1,IN+_1*
G04 #@! TO.N,+9V*
X151000000Y-108000000D03*
G04 #@! TO.P,U2,2,IN-_2*
G04 #@! TO.N,GND*
X165000000Y-108000000D03*
G04 #@! TO.P,U2,3,OUT+_3*
G04 #@! TO.N,+5V*
X151000000Y-46000000D03*
G04 #@! TO.P,U2,4,OUT-_4*
G04 #@! TO.N,GND*
X165000000Y-46000000D03*
G04 #@! TD*
D13*
G04 #@! TO.P,C4,1*
G04 #@! TO.N,+5V*
X202750000Y-71750000D03*
G04 #@! TO.P,C4,2*
G04 #@! TO.N,GND*
X200250000Y-71750000D03*
G04 #@! TD*
D14*
G04 #@! TO.P,J3,1,Pin_1_1*
G04 #@! TO.N,PWM_L*
X202000000Y-114500000D03*
D15*
G04 #@! TO.P,J3,2,Pin_2_2*
G04 #@! TO.N,+5V*
X202000000Y-117040000D03*
G04 #@! TO.P,J3,3,Pin_3_3*
G04 #@! TO.N,GND*
X202000000Y-119580000D03*
G04 #@! TD*
D14*
G04 #@! TO.P,J2,1,Pin_1_1*
G04 #@! TO.N,+5V*
X58500000Y-87960000D03*
D13*
G04 #@! TO.P,J2,2,Pin_2_2*
G04 #@! TO.N,LIDAR_TX*
X58500000Y-90500000D03*
G04 #@! TO.P,J2,3,Pin_3_3*
G04 #@! TO.N,LIDAR_RX*
X58500000Y-93040000D03*
G04 #@! TO.P,J2,4,Pin_4_4*
G04 #@! TO.N,GND*
X58500000Y-95580000D03*
G04 #@! TO.P,J2,5,Pin_5_5*
G04 #@! TO.N,unconnected-(J2-Pin_5-Pad5)*
X58500000Y-98120000D03*
G04 #@! TD*
D16*
G04 #@! TO.P,J1,1,VCC_1*
G04 #@! TO.N,Net-(F1-Pad2)*
X177000000Y-117500000D03*
D17*
X177000000Y-120500000D03*
D16*
G04 #@! TO.P,J1,2,GND_2*
G04 #@! TO.N,GND*
X159500000Y-117500000D03*
D17*
X159500000Y-120500000D03*
D18*
G04 #@! TO.P,J1,3,VCC_3*
G04 #@! TO.N,Net-(F1-Pad2)*
X170500000Y-118000000D03*
G04 #@! TO.P,J1,4,GND_4*
G04 #@! TO.N,GND*
X166000000Y-118000000D03*
G04 #@! TD*
D13*
G04 #@! TO.P,C3,1*
G04 #@! TO.N,+5V*
X60000000Y-114100000D03*
G04 #@! TO.P,C3,2*
G04 #@! TO.N,GND*
X60000000Y-111600000D03*
G04 #@! TD*
D19*
G04 #@! TO.P,D1,1,K_1*
G04 #@! TO.N,GND*
X188225000Y-91000000D03*
D20*
G04 #@! TO.P,D1,2,A_2*
G04 #@! TO.N,Net-(D1-A)*
X190765000Y-91000000D03*
G04 #@! TD*
D14*
G04 #@! TO.P,J4,1,Pin_1_1*
G04 #@! TO.N,PWM_R*
X201500000Y-66500000D03*
D15*
G04 #@! TO.P,J4,2,Pin_2_2*
G04 #@! TO.N,+5V*
X201500000Y-63960000D03*
G04 #@! TO.P,J4,3,Pin_3_3*
G04 #@! TO.N,GND*
X201500000Y-61420000D03*
G04 #@! TD*
D21*
G04 #@! TO.P,R1,1*
G04 #@! TO.N,+5V*
X197000000Y-80920000D03*
G04 #@! TO.P,R1,2*
G04 #@! TO.N,Net-(D1-A)*
X197000000Y-91080000D03*
G04 #@! TD*
D13*
G04 #@! TO.P,C5,1*
G04 #@! TO.N,+5V*
X199500000Y-124000000D03*
G04 #@! TO.P,C5,2*
G04 #@! TO.N,GND*
X202000000Y-124000000D03*
G04 #@! TD*
G04 #@! TO.P,C2,1*
G04 #@! TO.N,+5V*
X184450000Y-67200000D03*
G04 #@! TO.P,C2,2*
G04 #@! TO.N,GND*
X181950000Y-67200000D03*
G04 #@! TD*
D12*
G04 #@! TO.P,F1,1*
G04 #@! TO.N,Net-(SW1-B)*
X189600000Y-128700000D03*
G04 #@! TO.P,F1,2*
G04 #@! TO.N,Net-(F1-Pad2)*
X189600000Y-106200000D03*
G04 #@! TD*
D22*
G04 #@! TO.P,SW1,1,A_1*
G04 #@! TO.N,+9V*
X199398000Y-138000000D03*
D18*
G04 #@! TO.P,SW1,2,B_2*
G04 #@! TO.N,Net-(SW1-B)*
X194699000Y-138000000D03*
G04 #@! TO.P,SW1,3,C_3*
G04 #@! TO.N,unconnected-(SW1-C-Pad3)*
X190000000Y-138000000D03*
G04 #@! TD*
D23*
G04 #@! TO.P,C1,1*
G04 #@! TO.N,+5V*
X184276041Y-51400000D03*
D24*
G04 #@! TO.P,C1,2*
G04 #@! TO.N,GND*
X189276041Y-51400000D03*
G04 #@! TD*
D13*
G04 #@! TO.P,C6,1*
G04 #@! TO.N,+5V*
X58700000Y-81600000D03*
G04 #@! TO.P,C6,2*
G04 #@! TO.N,GND*
X56200000Y-81600000D03*
G04 #@! TD*
D14*
G04 #@! TO.P,U1,1,3.3V_1*
G04 #@! TO.N,unconnected-(U1-3.3V-Pad1)*
X72512500Y-116785000D03*
D13*
G04 #@! TO.P,U1,2,5V1_2*
G04 #@! TO.N,+5V*
X69972500Y-116785000D03*
G04 #@! TO.P,U1,3,GPIO02_I2C1/SDA_3*
G04 #@! TO.N,unconnected-(U1-GPIO02_I2C1{slash}SDA-Pad3)*
X72512500Y-114245000D03*
G04 #@! TO.P,U1,4,5V2_4*
G04 #@! TO.N,+5V*
X69972500Y-114245000D03*
G04 #@! TO.P,U1,5,GPIO03_I2C1/SCL_5*
G04 #@! TO.N,unconnected-(U1-GPIO03_I2C1{slash}SCL-Pad5)*
X72512500Y-111705000D03*
G04 #@! TO.P,U1,6,GND1_6*
G04 #@! TO.N,GND*
X69972500Y-111705000D03*
G04 #@! TO.P,U1,7,GPIO04_7*
G04 #@! TO.N,unconnected-(U1-GPIO04-Pad7)*
X72512500Y-109165000D03*
G04 #@! TO.P,U1,8,GPIO14_UART/TX_8*
G04 #@! TO.N,LIDAR_RX*
X69972500Y-109165000D03*
G04 #@! TO.P,U1,9,GND8_9*
G04 #@! TO.N,GND*
X72512500Y-106625000D03*
G04 #@! TO.P,U1,10,GPIO15_UART/RX_10*
G04 #@! TO.N,LIDAR_TX*
X69972500Y-106625000D03*
G04 #@! TO.P,U1,11,GPIO17_11*
G04 #@! TO.N,unconnected-(U1-GPIO17-Pad11)*
X72512500Y-104085000D03*
G04 #@! TO.P,U1,12,GPIO18_PWM0/CHAN2_12*
G04 #@! TO.N,PWM_L*
X69972500Y-104085000D03*
G04 #@! TO.P,U1,13,GPIO27_13*
G04 #@! TO.N,unconnected-(U1-GPIO27-Pad13)*
X72512500Y-101545000D03*
G04 #@! TO.P,U1,14,GND2_14*
G04 #@! TO.N,GND*
X69972500Y-101545000D03*
G04 #@! TO.P,U1,15,GPIO22_15*
G04 #@! TO.N,unconnected-(U1-GPIO22-Pad15)*
X72512500Y-99005000D03*
G04 #@! TO.P,U1,16,GPIO23_16*
G04 #@! TO.N,unconnected-(U1-GPIO23-Pad16)*
X69972500Y-99005000D03*
G04 #@! TO.P,U1,17,3.3V1_17*
G04 #@! TO.N,unconnected-(U1-3.3V1-Pad17)*
X72512500Y-96465000D03*
G04 #@! TO.P,U1,18,GPIO24_18*
G04 #@! TO.N,unconnected-(U1-GPIO24-Pad18)*
X69972500Y-96465000D03*
D25*
G04 #@! TO.P,U1,19,GPIO10_19*
G04 #@! TO.N,unconnected-(U1-GPIO10-Pad19)*
X72512500Y-93925000D03*
D13*
G04 #@! TO.P,U1,20,GND3_20*
G04 #@! TO.N,GND*
X69972500Y-93925000D03*
G04 #@! TO.P,U1,21,GPIO09_21*
G04 #@! TO.N,unconnected-(U1-GPIO09-Pad21)*
X72512500Y-91385000D03*
G04 #@! TO.P,U1,22,GPIO25_22*
G04 #@! TO.N,unconnected-(U1-GPIO25-Pad22)*
X69972500Y-91385000D03*
G04 #@! TO.P,U1,23,GPIO11_23*
G04 #@! TO.N,unconnected-(U1-GPIO11-Pad23)*
X72512500Y-88845000D03*
G04 #@! TO.P,U1,24,GPIO08_24*
G04 #@! TO.N,unconnected-(U1-GPIO08-Pad24)*
X69972500Y-88845000D03*
G04 #@! TO.P,U1,25,GND7_25*
G04 #@! TO.N,GND*
X72512500Y-86305000D03*
G04 #@! TO.P,U1,26,GPIO07_26*
G04 #@! TO.N,unconnected-(U1-GPIO07-Pad26)*
X69972500Y-86305000D03*
G04 #@! TO.P,U1,27,GPIO00_27*
G04 #@! TO.N,unconnected-(U1-GPIO00-Pad27)*
X72512500Y-83765000D03*
G04 #@! TO.P,U1,28,GPIO01_28*
G04 #@! TO.N,unconnected-(U1-GPIO01-Pad28)*
X69972500Y-83765000D03*
G04 #@! TO.P,U1,29,GPIO05_29*
G04 #@! TO.N,unconnected-(U1-GPIO05-Pad29)*
X72512500Y-81225000D03*
G04 #@! TO.P,U1,30,GND4_30*
G04 #@! TO.N,GND*
X69972500Y-81225000D03*
G04 #@! TO.P,U1,31,GPIO06_31*
G04 #@! TO.N,unconnected-(U1-GPIO06-Pad31)*
X72512500Y-78685000D03*
G04 #@! TO.P,U1,32,GPIO12_32*
G04 #@! TO.N,unconnected-(U1-GPIO12-Pad32)*
X69972500Y-78685000D03*
D15*
G04 #@! TO.P,U1,33,GPIO13_33*
G04 #@! TO.N,unconnected-(U1-GPIO13-Pad33)*
X72512500Y-76145000D03*
D13*
G04 #@! TO.P,U1,34,GND5_34*
G04 #@! TO.N,GND*
X69972500Y-76145000D03*
D15*
G04 #@! TO.P,U1,35,GPIO19_PWM0/CHAN2_35*
G04 #@! TO.N,PWM_R*
X72512500Y-73605000D03*
D13*
G04 #@! TO.P,U1,36,GPIO16_36*
G04 #@! TO.N,unconnected-(U1-GPIO16-Pad36)*
X69972500Y-73605000D03*
G04 #@! TO.P,U1,37,GPIO26_37*
G04 #@! TO.N,unconnected-(U1-GPIO26-Pad37)*
X72512500Y-71065000D03*
G04 #@! TO.P,U1,38,GPIO20_38*
G04 #@! TO.N,unconnected-(U1-GPIO20-Pad38)*
X69972500Y-71065000D03*
G04 #@! TO.P,U1,39,GND6_39*
G04 #@! TO.N,GND*
X72512500Y-68525000D03*
G04 #@! TO.P,U1,40,GPIO21_40*
G04 #@! TO.N,unconnected-(U1-GPIO21-Pad40)*
X69972500Y-68525000D03*
G04 #@! TD*
D26*
G04 #@! TO.N,+5V*
X65600000Y-114323959D03*
X156000000Y-82500000D03*
D27*
G04 #@! TO.N,GND*
X76100000Y-106500000D03*
X66100000Y-101500000D03*
X205500000Y-120000000D03*
X184800000Y-91000000D03*
X64000000Y-111415000D03*
X196000000Y-71500000D03*
X156000000Y-114500000D03*
X55250000Y-96800000D03*
X196000000Y-51200000D03*
X202000000Y-129000000D03*
X66100000Y-76000000D03*
X205000000Y-60500000D03*
X66100000Y-81500000D03*
X201500000Y-58500000D03*
X156000000Y-119000000D03*
X76600000Y-86000000D03*
G04 #@! TO.N,PWM_L*
X203500000Y-109000000D03*
D26*
G04 #@! TO.N,LIDAR_TX*
X60200000Y-103600000D03*
G04 #@! TO.N,LIDAR_RX*
X57000000Y-108000000D03*
D27*
G04 #@! TO.N,PWM_R*
X191500000Y-66500000D03*
G04 #@! TD*
G04 #@! TO.N,Net-(SW1-B)*
D28*
X194699000Y-138000000D02*
X194699000Y-132199000D01*
X194699000Y-132199000D02*
X191200000Y-128700000D01*
X191200000Y-128700000D02*
X189600000Y-128700000D01*
G04 #@! TO.N,Net-(F1-Pad2)*
X189600000Y-106200000D02*
X188300000Y-106200000D01*
X188300000Y-106200000D02*
X177000000Y-117500000D01*
G04 #@! TO.N,+5V*
X184450000Y-67200000D02*
X184450000Y-63050000D01*
X202000000Y-117040000D02*
X199540000Y-117040000D01*
X205250000Y-63960000D02*
X201500000Y-63960000D01*
X197000000Y-80920000D02*
X197000000Y-78900000D01*
X197960000Y-63960000D02*
X197000000Y-63000000D01*
X209000000Y-79300000D02*
X209000000Y-64000000D01*
X209000000Y-114500000D02*
X209000000Y-79300000D01*
X202000000Y-117040000D02*
X206460000Y-117040000D01*
X208600000Y-78900000D02*
X209000000Y-79300000D01*
X53850000Y-114250000D02*
X53776041Y-114323959D01*
X58700000Y-81600000D02*
X58700000Y-87760000D01*
X206460000Y-117040000D02*
X209000000Y-114500000D01*
X199540000Y-117040000D02*
X199500000Y-117000000D01*
X207080000Y-64000000D02*
X207040000Y-63960000D01*
D29*
X58460000Y-88000000D02*
X58500000Y-87960000D01*
D28*
X209000000Y-64000000D02*
X207080000Y-64000000D01*
X207040000Y-63960000D02*
X205250000Y-63960000D01*
X47600000Y-89500000D02*
X47600000Y-108000000D01*
X201500000Y-63960000D02*
X197960000Y-63960000D01*
X184450000Y-63050000D02*
X184500000Y-63000000D01*
D29*
X205250000Y-69250000D02*
X205250000Y-63960000D01*
D28*
X197000000Y-78900000D02*
X208600000Y-78900000D01*
X184500000Y-63000000D02*
X183176041Y-61676041D01*
X183176041Y-61676041D02*
X183176041Y-51000000D01*
X151000000Y-46000000D02*
X156000000Y-51000000D01*
X156000000Y-51000000D02*
X156000000Y-82500000D01*
X49700000Y-87400000D02*
X47600000Y-89500000D01*
X199500000Y-117000000D02*
X199500000Y-124000000D01*
X57940000Y-87400000D02*
X49700000Y-87400000D01*
X156000000Y-51000000D02*
X183176041Y-51000000D01*
X47600000Y-108000000D02*
X53850000Y-114250000D01*
X53776041Y-114323959D02*
X65600000Y-114323959D01*
D29*
X202750000Y-71750000D02*
X205250000Y-69250000D01*
D28*
X197000000Y-63000000D02*
X184500000Y-63000000D01*
G04 #@! TO.N,GND*
X166000000Y-118000000D02*
X160000000Y-118000000D01*
X160000000Y-118000000D02*
X159500000Y-117500000D01*
G04 #@! TO.N,PWM_L*
D29*
X203500000Y-109000000D02*
X203500000Y-113000000D01*
X203500000Y-113000000D02*
X202000000Y-114500000D01*
G04 #@! TO.N,+9V*
D30*
X159000000Y-100000000D02*
X151000000Y-108000000D01*
X199398000Y-130898000D02*
X194500000Y-126000000D01*
X199398000Y-138000000D02*
X199500000Y-137898000D01*
X194500000Y-126000000D02*
X194500000Y-100000000D01*
X199398000Y-138000000D02*
X199398000Y-130898000D01*
X194500000Y-100000000D02*
X159000000Y-100000000D01*
G04 #@! TO.N,LIDAR_TX*
D29*
X60200000Y-103600000D02*
X62100000Y-103600000D01*
X63100000Y-92900000D02*
X60700000Y-90500000D01*
X60700000Y-90500000D02*
X58500000Y-90500000D01*
X62100000Y-103600000D02*
X63100000Y-102600000D01*
X63100000Y-102600000D02*
X63100000Y-92900000D01*
G04 #@! TO.N,LIDAR_RX*
X53000000Y-105300000D02*
X53000000Y-93040000D01*
X53000000Y-93040000D02*
X58500000Y-93040000D01*
X57000000Y-108000000D02*
X55700000Y-108000000D01*
X55700000Y-108000000D02*
X53000000Y-105300000D01*
G04 #@! TO.N,Net-(F1-Pad2)*
D30*
X177000000Y-117500000D02*
X177000000Y-120500000D01*
D28*
X176500000Y-118000000D02*
X177000000Y-117500000D01*
X170500000Y-118000000D02*
X176500000Y-118000000D01*
G04 #@! TO.N,Net-(D1-A)*
D29*
X190845000Y-91080000D02*
X190765000Y-91000000D01*
X197000000Y-91080000D02*
X190845000Y-91080000D01*
G04 #@! TO.N,PWM_R*
X191500000Y-66500000D02*
X201500000Y-66500000D01*
G04 #@! TD*
G04 #@! TA.AperFunction,Conductor*
G04 #@! TO.N,GND*
G36*
X61701085Y-38560713D02*
G01*
X61830280Y-38619714D01*
X61937619Y-38712724D01*
X62014406Y-38832208D01*
X62054421Y-38968485D01*
X62059500Y-39039500D01*
X62059500Y-59942680D01*
X62091444Y-60226196D01*
X62091449Y-60226226D01*
X62154939Y-60504396D01*
X62154942Y-60504406D01*
X62249186Y-60773740D01*
X62372986Y-61030815D01*
X62372989Y-61030820D01*
X62372991Y-61030824D01*
X62418388Y-61103073D01*
X62524793Y-61272417D01*
X62524806Y-61272435D01*
X62689764Y-61479287D01*
X62702711Y-61495521D01*
X62904479Y-61697289D01*
X63127569Y-61875197D01*
X63127573Y-61875199D01*
X63127582Y-61875206D01*
X63244616Y-61948743D01*
X63369176Y-62027009D01*
X63369182Y-62027012D01*
X63369184Y-62027013D01*
X63370017Y-62027414D01*
X63626261Y-62150814D01*
X63895591Y-62245057D01*
X63895599Y-62245058D01*
X63895603Y-62245060D01*
X64005078Y-62270046D01*
X64173780Y-62308552D01*
X64173795Y-62308553D01*
X64173803Y-62308555D01*
X64457319Y-62340499D01*
X64457324Y-62340499D01*
X64457329Y-62340500D01*
X68355853Y-62340500D01*
X68496438Y-62360713D01*
X68625633Y-62419714D01*
X68732972Y-62512724D01*
X68809759Y-62632208D01*
X68849774Y-62768485D01*
X68849774Y-62910515D01*
X68842342Y-62950538D01*
X68778445Y-63230486D01*
X68778443Y-63230496D01*
X68747000Y-63509567D01*
X68747000Y-63790432D01*
X68778443Y-64069503D01*
X68778445Y-64069513D01*
X68840937Y-64343308D01*
X68840939Y-64343314D01*
X68840940Y-64343318D01*
X68933699Y-64608408D01*
X69055555Y-64861445D01*
X69204977Y-65099248D01*
X69204979Y-65099251D01*
X69204982Y-65099255D01*
X69380074Y-65318814D01*
X69380085Y-65318826D01*
X69578673Y-65517414D01*
X69578685Y-65517425D01*
X69794737Y-65689720D01*
X69798252Y-65692523D01*
X70036055Y-65841945D01*
X70289092Y-65963801D01*
X70554182Y-66056560D01*
X70554191Y-66056562D01*
X70827986Y-66119054D01*
X70827996Y-66119056D01*
X71055647Y-66144705D01*
X71107075Y-66150500D01*
X71107076Y-66150500D01*
X71387924Y-66150500D01*
X71387925Y-66150500D01*
X71498095Y-66138086D01*
X71667003Y-66119056D01*
X71667006Y-66119055D01*
X71667009Y-66119055D01*
X71940818Y-66056560D01*
X72205908Y-65963801D01*
X72458945Y-65841945D01*
X72696748Y-65692523D01*
X72906326Y-65525390D01*
X72916314Y-65517425D01*
X72916315Y-65517423D01*
X72916325Y-65517416D01*
X73114916Y-65318825D01*
X73290023Y-65099248D01*
X73439445Y-64861445D01*
X73561301Y-64608408D01*
X73654060Y-64343318D01*
X73716555Y-64069509D01*
X73748000Y-63790425D01*
X73748000Y-63509575D01*
X73716555Y-63230491D01*
X73712692Y-63213567D01*
X73652658Y-62950538D01*
X73641081Y-62808980D01*
X73669855Y-62669895D01*
X73736648Y-62544551D01*
X73836048Y-62443101D01*
X73960005Y-62373765D01*
X74098474Y-62342160D01*
X74139147Y-62340500D01*
X117355853Y-62340500D01*
X117496438Y-62360713D01*
X117625633Y-62419714D01*
X117732972Y-62512724D01*
X117809759Y-62632208D01*
X117849774Y-62768485D01*
X117849774Y-62910515D01*
X117842342Y-62950538D01*
X117778445Y-63230486D01*
X117778443Y-63230496D01*
X117747000Y-63509567D01*
X117747000Y-63790432D01*
X117778443Y-64069503D01*
X117778445Y-64069513D01*
X117840937Y-64343308D01*
X117840939Y-64343314D01*
X117840940Y-64343318D01*
X117933699Y-64608408D01*
X118055555Y-64861445D01*
X118204977Y-65099248D01*
X118204979Y-65099251D01*
X118204982Y-65099255D01*
X118380074Y-65318814D01*
X118380085Y-65318826D01*
X118578673Y-65517414D01*
X118578685Y-65517425D01*
X118794737Y-65689720D01*
X118798252Y-65692523D01*
X119036055Y-65841945D01*
X119289092Y-65963801D01*
X119554182Y-66056560D01*
X119554191Y-66056562D01*
X119827986Y-66119054D01*
X119827996Y-66119056D01*
X120055647Y-66144705D01*
X120107075Y-66150500D01*
X120107076Y-66150500D01*
X120387924Y-66150500D01*
X120387925Y-66150500D01*
X120498095Y-66138086D01*
X120667003Y-66119056D01*
X120667006Y-66119055D01*
X120667009Y-66119055D01*
X120940818Y-66056560D01*
X121205908Y-65963801D01*
X121458945Y-65841945D01*
X121696748Y-65692523D01*
X121906326Y-65525390D01*
X121916314Y-65517425D01*
X121916315Y-65517423D01*
X121916325Y-65517416D01*
X122114916Y-65318825D01*
X122290023Y-65099248D01*
X122439445Y-64861445D01*
X122561301Y-64608408D01*
X122654060Y-64343318D01*
X122716555Y-64069509D01*
X122748000Y-63790425D01*
X122748000Y-63509575D01*
X122716555Y-63230491D01*
X122712692Y-63213567D01*
X122652658Y-62950538D01*
X122641081Y-62808980D01*
X122669855Y-62669895D01*
X122736648Y-62544551D01*
X122836048Y-62443101D01*
X122960005Y-62373765D01*
X123098474Y-62342160D01*
X123139147Y-62340500D01*
X126742670Y-62340500D01*
X126742671Y-62340500D01*
X126742680Y-62340499D01*
X127026196Y-62308555D01*
X127026201Y-62308554D01*
X127026220Y-62308552D01*
X127304409Y-62245057D01*
X127573739Y-62150814D01*
X127830824Y-62027009D01*
X128072431Y-61875197D01*
X128295521Y-61697289D01*
X128497289Y-61495521D01*
X128675197Y-61272431D01*
X128827009Y-61030824D01*
X128909482Y-60859567D01*
X130499500Y-60859567D01*
X130499500Y-61140432D01*
X130530943Y-61419503D01*
X130530945Y-61419513D01*
X130593437Y-61693308D01*
X130593439Y-61693314D01*
X130593440Y-61693318D01*
X130686199Y-61958408D01*
X130808055Y-62211445D01*
X130957477Y-62449248D01*
X130957479Y-62449251D01*
X130957482Y-62449255D01*
X131132574Y-62668814D01*
X131132585Y-62668826D01*
X131331173Y-62867414D01*
X131331185Y-62867425D01*
X131550744Y-63042517D01*
X131550752Y-63042523D01*
X131788555Y-63191945D01*
X132041592Y-63313801D01*
X132306682Y-63406560D01*
X132306691Y-63406562D01*
X132580486Y-63469054D01*
X132580496Y-63469056D01*
X132808147Y-63494705D01*
X132859575Y-63500500D01*
X132859576Y-63500500D01*
X133140424Y-63500500D01*
X133140425Y-63500500D01*
X133250595Y-63488086D01*
X133419503Y-63469056D01*
X133419506Y-63469055D01*
X133419509Y-63469055D01*
X133693318Y-63406560D01*
X133958408Y-63313801D01*
X134211445Y-63191945D01*
X134449248Y-63042523D01*
X134668825Y-62867416D01*
X134867416Y-62668825D01*
X134879598Y-62653550D01*
X134972985Y-62536446D01*
X135042523Y-62449248D01*
X135191945Y-62211445D01*
X135313801Y-61958408D01*
X135406560Y-61693318D01*
X135469055Y-61419509D01*
X135500500Y-61140425D01*
X135500500Y-60859575D01*
X135469055Y-60580491D01*
X135406560Y-60306682D01*
X135313801Y-60041592D01*
X135191945Y-59788555D01*
X135042523Y-59550752D01*
X135042517Y-59550744D01*
X134867425Y-59331185D01*
X134867414Y-59331173D01*
X134668826Y-59132585D01*
X134668814Y-59132574D01*
X134449255Y-58957482D01*
X134449251Y-58957479D01*
X134449248Y-58957477D01*
X134211445Y-58808055D01*
X133958408Y-58686199D01*
X133693318Y-58593440D01*
X133693314Y-58593439D01*
X133693308Y-58593437D01*
X133419513Y-58530945D01*
X133419503Y-58530943D01*
X133140432Y-58499500D01*
X133140425Y-58499500D01*
X132859575Y-58499500D01*
X132859567Y-58499500D01*
X132580496Y-58530943D01*
X132580486Y-58530945D01*
X132306691Y-58593437D01*
X132306679Y-58593441D01*
X132041597Y-58686197D01*
X132041595Y-58686197D01*
X132041592Y-58686199D01*
X131920543Y-58744492D01*
X131788552Y-58808056D01*
X131550744Y-58957482D01*
X131331185Y-59132574D01*
X131331173Y-59132585D01*
X131132585Y-59331173D01*
X131132574Y-59331185D01*
X130957482Y-59550744D01*
X130808056Y-59788552D01*
X130808055Y-59788555D01*
X130733833Y-59942680D01*
X130686197Y-60041597D01*
X130593441Y-60306679D01*
X130593437Y-60306691D01*
X130530945Y-60580486D01*
X130530943Y-60580496D01*
X130499500Y-60859567D01*
X128909482Y-60859567D01*
X128950814Y-60773739D01*
X129045057Y-60504409D01*
X129108552Y-60226220D01*
X129140500Y-59942671D01*
X129140500Y-46868881D01*
X139499500Y-46868881D01*
X139499500Y-47131118D01*
X139533729Y-47391114D01*
X139601603Y-47644421D01*
X139701955Y-47886694D01*
X139833071Y-48113795D01*
X139833081Y-48113810D01*
X139992717Y-48321851D01*
X140178148Y-48507282D01*
X140386189Y-48666918D01*
X140386197Y-48666924D01*
X140613303Y-48798043D01*
X140855581Y-48898398D01*
X141108884Y-48966270D01*
X141368880Y-49000500D01*
X141368881Y-49000500D01*
X141631119Y-49000500D01*
X141631120Y-49000500D01*
X141891116Y-48966270D01*
X142144419Y-48898398D01*
X142386697Y-48798043D01*
X142613803Y-48666924D01*
X142821851Y-48507282D01*
X143007282Y-48321851D01*
X143166924Y-48113803D01*
X143298043Y-47886697D01*
X143398398Y-47644419D01*
X143466270Y-47391116D01*
X143500500Y-47131120D01*
X143500500Y-46868880D01*
X143466270Y-46608884D01*
X143398398Y-46355581D01*
X143353326Y-46246767D01*
X143298046Y-46113308D01*
X143291544Y-46102047D01*
X143291543Y-46102045D01*
X143291541Y-46102042D01*
X143166925Y-45886199D01*
X143166918Y-45886189D01*
X143153637Y-45868881D01*
X148999500Y-45868881D01*
X148999500Y-46131118D01*
X149033729Y-46391114D01*
X149033730Y-46391116D01*
X149092080Y-46608884D01*
X149101603Y-46644421D01*
X149201955Y-46886694D01*
X149333071Y-47113795D01*
X149333081Y-47113810D01*
X149492717Y-47321851D01*
X149678148Y-47507282D01*
X149886189Y-47666918D01*
X149886197Y-47666924D01*
X150113303Y-47798043D01*
X150355581Y-47898398D01*
X150608884Y-47966270D01*
X150711987Y-47979844D01*
X150848731Y-48018234D01*
X150969120Y-48093593D01*
X150999702Y-48121729D01*
X154353346Y-51475373D01*
X154438462Y-51589074D01*
X154488096Y-51722149D01*
X154499500Y-51828219D01*
X154499500Y-82618092D01*
X154536446Y-82851367D01*
X154536448Y-82851373D01*
X154609427Y-83075979D01*
X154609434Y-83075996D01*
X154716654Y-83286428D01*
X154716662Y-83286440D01*
X154855481Y-83477508D01*
X154855487Y-83477515D01*
X155022484Y-83644512D01*
X155022491Y-83644518D01*
X155025781Y-83646908D01*
X155213567Y-83783343D01*
X155424008Y-83890568D01*
X155648632Y-83963553D01*
X155881908Y-84000500D01*
X156118092Y-84000500D01*
X156351368Y-83963553D01*
X156575992Y-83890568D01*
X156786433Y-83783343D01*
X156977510Y-83644517D01*
X157144517Y-83477510D01*
X157283343Y-83286433D01*
X157390568Y-83075992D01*
X157463553Y-82851368D01*
X157500500Y-82618092D01*
X157500500Y-52999500D01*
X157520713Y-52858915D01*
X157579714Y-52729720D01*
X157672724Y-52622381D01*
X157792208Y-52545594D01*
X157928485Y-52505579D01*
X157999500Y-52500500D01*
X181176541Y-52500500D01*
X181317126Y-52520713D01*
X181446321Y-52579714D01*
X181553660Y-52672724D01*
X181630447Y-52792208D01*
X181670462Y-52928485D01*
X181675541Y-52999500D01*
X181675541Y-61794133D01*
X181712487Y-62027408D01*
X181712489Y-62027414D01*
X181785468Y-62252020D01*
X181785475Y-62252038D01*
X181892692Y-62462465D01*
X181892696Y-62462472D01*
X181892698Y-62462475D01*
X182031524Y-62653551D01*
X182031525Y-62653552D01*
X182803346Y-63425373D01*
X182888462Y-63539074D01*
X182938096Y-63672149D01*
X182949500Y-63778219D01*
X182949500Y-67318092D01*
X182986446Y-67551367D01*
X182986448Y-67551373D01*
X183059427Y-67775979D01*
X183059434Y-67775996D01*
X183166654Y-67986428D01*
X183166662Y-67986440D01*
X183305481Y-68177508D01*
X183305487Y-68177515D01*
X183472484Y-68344512D01*
X183472491Y-68344518D01*
X183585804Y-68426845D01*
X183663567Y-68483343D01*
X183874008Y-68590568D01*
X184098632Y-68663553D01*
X184331908Y-68700500D01*
X184568092Y-68700500D01*
X184801368Y-68663553D01*
X185025992Y-68590568D01*
X185236433Y-68483343D01*
X185427510Y-68344517D01*
X185594517Y-68177510D01*
X185733343Y-67986433D01*
X185840568Y-67775992D01*
X185913553Y-67551368D01*
X185950500Y-67318092D01*
X185950500Y-64999500D01*
X185970713Y-64858915D01*
X186029714Y-64729720D01*
X186122724Y-64622381D01*
X186242208Y-64545594D01*
X186378485Y-64505579D01*
X186449500Y-64500500D01*
X189819227Y-64500500D01*
X189959812Y-64520713D01*
X190089007Y-64579714D01*
X190196346Y-64672724D01*
X190273133Y-64792208D01*
X190313148Y-64928485D01*
X190313148Y-65070515D01*
X190273133Y-65206792D01*
X190196346Y-65326276D01*
X190191149Y-65331857D01*
X190181088Y-65343329D01*
X190173402Y-65353346D01*
X190041389Y-65525388D01*
X190041388Y-65525390D01*
X189926656Y-65724110D01*
X189838843Y-65936109D01*
X189838842Y-65936112D01*
X189779453Y-66157755D01*
X189779450Y-66157771D01*
X189749500Y-66385266D01*
X189749500Y-66614733D01*
X189779450Y-66842228D01*
X189779453Y-66842244D01*
X189838842Y-67063887D01*
X189838843Y-67063890D01*
X189926656Y-67275889D01*
X189951022Y-67318092D01*
X190041389Y-67474612D01*
X190143347Y-67607485D01*
X190181085Y-67656666D01*
X190343333Y-67818914D01*
X190343337Y-67818917D01*
X190343339Y-67818919D01*
X190525388Y-67958611D01*
X190724112Y-68073344D01*
X190936113Y-68161158D01*
X191157762Y-68220548D01*
X191385266Y-68250500D01*
X191385267Y-68250500D01*
X191614733Y-68250500D01*
X191614734Y-68250500D01*
X191842238Y-68220548D01*
X192063887Y-68161158D01*
X192275888Y-68073344D01*
X192474612Y-67958611D01*
X192656661Y-67818919D01*
X192818919Y-67656661D01*
X192828925Y-67646655D01*
X192942626Y-67561539D01*
X193075701Y-67511904D01*
X193181772Y-67500500D01*
X199628084Y-67500500D01*
X199768669Y-67520713D01*
X199897864Y-67579714D01*
X200005203Y-67672724D01*
X200034077Y-67714311D01*
X200034815Y-67713759D01*
X200056203Y-67742330D01*
X200056204Y-67742331D01*
X200142454Y-67857546D01*
X200257669Y-67943796D01*
X200297390Y-67958611D01*
X200372003Y-67986440D01*
X200392517Y-67994091D01*
X200452127Y-68000500D01*
X202547872Y-68000499D01*
X202547875Y-68000499D01*
X202547878Y-68000498D01*
X202607483Y-67994091D01*
X202742331Y-67943796D01*
X202857546Y-67857546D01*
X202943796Y-67742331D01*
X202994091Y-67607483D01*
X203000500Y-67547873D01*
X203000499Y-65959498D01*
X203020712Y-65818916D01*
X203079713Y-65689720D01*
X203172723Y-65582381D01*
X203292207Y-65505594D01*
X203428484Y-65465579D01*
X203499499Y-65460500D01*
X203750500Y-65460500D01*
X203891085Y-65480713D01*
X204020280Y-65539714D01*
X204127619Y-65632724D01*
X204204406Y-65752208D01*
X204244421Y-65888485D01*
X204249500Y-65959500D01*
X204249500Y-68628888D01*
X204229287Y-68769473D01*
X204170286Y-68898668D01*
X204103346Y-68981734D01*
X202981734Y-70103346D01*
X202868033Y-70188462D01*
X202734958Y-70238096D01*
X202651377Y-70247082D01*
X202651447Y-70247962D01*
X202631913Y-70249499D01*
X202398632Y-70286446D01*
X202398626Y-70286448D01*
X202174020Y-70359427D01*
X202174003Y-70359434D01*
X201963571Y-70466654D01*
X201963559Y-70466662D01*
X201772491Y-70605481D01*
X201772484Y-70605487D01*
X201605487Y-70772484D01*
X201605481Y-70772491D01*
X201466662Y-70963559D01*
X201466654Y-70963571D01*
X201359434Y-71174003D01*
X201359427Y-71174020D01*
X201286448Y-71398626D01*
X201286446Y-71398632D01*
X201249500Y-71631907D01*
X201249500Y-71868092D01*
X201286446Y-72101367D01*
X201286448Y-72101373D01*
X201359427Y-72325979D01*
X201359434Y-72325996D01*
X201466654Y-72536428D01*
X201466662Y-72536440D01*
X201605481Y-72727508D01*
X201605487Y-72727515D01*
X201772484Y-72894512D01*
X201772490Y-72894517D01*
X201963567Y-73033343D01*
X202174008Y-73140568D01*
X202398632Y-73213553D01*
X202631908Y-73250500D01*
X202868092Y-73250500D01*
X203101368Y-73213553D01*
X203325992Y-73140568D01*
X203536433Y-73033343D01*
X203727510Y-72894517D01*
X203894517Y-72727510D01*
X204033343Y-72536433D01*
X204140568Y-72325992D01*
X204213553Y-72101368D01*
X204250500Y-71868092D01*
X204250500Y-71868086D01*
X204252038Y-71848553D01*
X204253724Y-71848685D01*
X204270713Y-71730526D01*
X204329714Y-71601331D01*
X204396650Y-71518269D01*
X205859334Y-70055584D01*
X205859348Y-70055573D01*
X206027133Y-69887788D01*
X206027139Y-69887782D01*
X206136632Y-69723914D01*
X206212051Y-69541835D01*
X206250500Y-69348541D01*
X206250500Y-65972078D01*
X206270713Y-65831493D01*
X206329714Y-65702298D01*
X206422724Y-65594959D01*
X206542208Y-65518172D01*
X206678485Y-65478157D01*
X206803694Y-65476030D01*
X206815670Y-65477338D01*
X206961908Y-65500500D01*
X206961909Y-65500500D01*
X207027674Y-65500500D01*
X207054694Y-65503452D01*
X207097417Y-65514434D01*
X207141085Y-65520713D01*
X207165866Y-65532030D01*
X207192252Y-65538813D01*
X207230150Y-65561387D01*
X207270280Y-65579714D01*
X207290870Y-65597556D01*
X207314275Y-65611497D01*
X207344278Y-65643834D01*
X207377619Y-65672724D01*
X207392347Y-65695642D01*
X207410878Y-65715614D01*
X207430557Y-65755099D01*
X207454406Y-65792208D01*
X207462081Y-65818346D01*
X207474234Y-65842730D01*
X207481991Y-65886156D01*
X207494421Y-65928485D01*
X207497670Y-65973917D01*
X207499212Y-65982547D01*
X207498653Y-65987661D01*
X207499500Y-65999500D01*
X207499500Y-76900500D01*
X207479287Y-77041085D01*
X207420286Y-77170280D01*
X207327276Y-77277619D01*
X207207792Y-77354406D01*
X207071515Y-77394421D01*
X207000500Y-77399500D01*
X196881908Y-77399500D01*
X196648632Y-77436446D01*
X196648626Y-77436448D01*
X196424020Y-77509427D01*
X196424003Y-77509434D01*
X196213571Y-77616654D01*
X196213559Y-77616662D01*
X196022491Y-77755481D01*
X196022484Y-77755487D01*
X195855487Y-77922484D01*
X195855481Y-77922491D01*
X195716662Y-78113559D01*
X195716654Y-78113571D01*
X195609434Y-78324003D01*
X195609427Y-78324020D01*
X195536448Y-78548626D01*
X195536446Y-78548632D01*
X195499500Y-78781907D01*
X195499500Y-81038092D01*
X195536446Y-81271367D01*
X195536448Y-81271373D01*
X195609427Y-81495979D01*
X195609434Y-81495996D01*
X195716654Y-81706428D01*
X195716662Y-81706440D01*
X195855481Y-81897508D01*
X195855487Y-81897515D01*
X196022484Y-82064512D01*
X196022490Y-82064517D01*
X196213567Y-82203343D01*
X196424008Y-82310568D01*
X196648632Y-82383553D01*
X196881908Y-82420500D01*
X197118092Y-82420500D01*
X197351368Y-82383553D01*
X197575992Y-82310568D01*
X197786433Y-82203343D01*
X197977510Y-82064517D01*
X198144517Y-81897510D01*
X198283343Y-81706433D01*
X198390568Y-81495992D01*
X198463553Y-81271368D01*
X198500500Y-81038092D01*
X198500500Y-80899500D01*
X198520713Y-80758915D01*
X198579714Y-80629720D01*
X198672724Y-80522381D01*
X198792208Y-80445594D01*
X198928485Y-80405579D01*
X198999500Y-80400500D01*
X207000500Y-80400500D01*
X207141085Y-80420713D01*
X207270280Y-80479714D01*
X207377619Y-80572724D01*
X207454406Y-80692208D01*
X207494421Y-80828485D01*
X207499500Y-80899500D01*
X207499500Y-113671781D01*
X207479287Y-113812366D01*
X207420286Y-113941561D01*
X207353346Y-114024627D01*
X205984627Y-115393346D01*
X205870926Y-115478462D01*
X205737851Y-115528096D01*
X205631781Y-115539500D01*
X203999500Y-115539500D01*
X203858915Y-115519287D01*
X203729720Y-115460286D01*
X203622381Y-115367276D01*
X203545594Y-115247792D01*
X203505579Y-115111515D01*
X203500500Y-115040501D01*
X203500499Y-114621114D01*
X203520712Y-114480530D01*
X203579713Y-114351334D01*
X203646648Y-114268272D01*
X204277139Y-113637782D01*
X204293157Y-113613810D01*
X204344127Y-113537528D01*
X204354860Y-113521463D01*
X204386632Y-113473914D01*
X204448952Y-113323459D01*
X204462051Y-113291836D01*
X204500500Y-113098541D01*
X204500500Y-112901460D01*
X204500500Y-110681772D01*
X204520713Y-110541187D01*
X204579714Y-110411992D01*
X204646655Y-110328925D01*
X204818914Y-110156666D01*
X204818919Y-110156661D01*
X204958611Y-109974612D01*
X205073344Y-109775888D01*
X205161158Y-109563887D01*
X205220548Y-109342238D01*
X205250500Y-109114734D01*
X205250500Y-108885266D01*
X205220548Y-108657762D01*
X205161158Y-108436113D01*
X205073344Y-108224112D01*
X204958611Y-108025388D01*
X204818919Y-107843339D01*
X204818917Y-107843337D01*
X204818914Y-107843333D01*
X204656666Y-107681085D01*
X204635052Y-107664500D01*
X204474612Y-107541389D01*
X204363510Y-107477244D01*
X204275889Y-107426656D01*
X204063890Y-107338843D01*
X204063887Y-107338842D01*
X203842244Y-107279453D01*
X203842228Y-107279450D01*
X203651477Y-107254337D01*
X203614734Y-107249500D01*
X203385266Y-107249500D01*
X203353631Y-107253664D01*
X203157771Y-107279450D01*
X203157755Y-107279453D01*
X202936112Y-107338842D01*
X202936109Y-107338843D01*
X202724110Y-107426656D01*
X202608528Y-107493388D01*
X202525388Y-107541389D01*
X202446796Y-107601695D01*
X202343333Y-107681085D01*
X202181085Y-107843333D01*
X202147813Y-107886694D01*
X202041389Y-108025388D01*
X202041388Y-108025390D01*
X201926656Y-108224110D01*
X201838843Y-108436109D01*
X201838842Y-108436112D01*
X201779453Y-108657755D01*
X201779450Y-108657771D01*
X201749500Y-108885266D01*
X201749500Y-109114733D01*
X201779450Y-109342228D01*
X201779453Y-109342244D01*
X201838842Y-109563887D01*
X201838843Y-109563890D01*
X201926656Y-109775889D01*
X201977244Y-109863510D01*
X202041389Y-109974612D01*
X202181081Y-110156661D01*
X202181085Y-110156666D01*
X202353345Y-110328925D01*
X202438461Y-110442626D01*
X202488096Y-110575701D01*
X202499500Y-110681772D01*
X202499500Y-112378887D01*
X202479287Y-112519472D01*
X202420286Y-112648667D01*
X202353349Y-112731729D01*
X202284057Y-112801022D01*
X202231731Y-112853348D01*
X202118029Y-112938463D01*
X201984954Y-112988097D01*
X201878887Y-112999500D01*
X200952124Y-112999500D01*
X200952119Y-112999501D01*
X200892519Y-113005908D01*
X200892515Y-113005909D01*
X200757673Y-113056202D01*
X200757665Y-113056206D01*
X200642454Y-113142454D01*
X200556206Y-113257665D01*
X200556201Y-113257675D01*
X200505909Y-113392514D01*
X200505909Y-113392517D01*
X200499500Y-113452127D01*
X200499500Y-114480530D01*
X200499501Y-115040500D01*
X200479288Y-115181084D01*
X200420287Y-115310280D01*
X200327277Y-115417619D01*
X200207793Y-115494406D01*
X200071516Y-115534421D01*
X200000501Y-115539500D01*
X199909913Y-115539500D01*
X199831853Y-115533356D01*
X199787689Y-115526361D01*
X199618096Y-115499500D01*
X199618092Y-115499500D01*
X199381908Y-115499500D01*
X199148632Y-115536446D01*
X199148626Y-115536448D01*
X198924020Y-115609427D01*
X198924002Y-115609434D01*
X198713575Y-115716651D01*
X198713568Y-115716655D01*
X198522490Y-115855483D01*
X198522488Y-115855484D01*
X198355484Y-116022488D01*
X198355483Y-116022490D01*
X198216656Y-116213567D01*
X198120541Y-116402206D01*
X198120536Y-116402216D01*
X198109431Y-116424007D01*
X198036447Y-116648630D01*
X198036446Y-116648632D01*
X197999500Y-116881907D01*
X197999500Y-124118092D01*
X198036446Y-124351367D01*
X198036448Y-124351373D01*
X198109427Y-124575979D01*
X198109434Y-124575996D01*
X198216654Y-124786428D01*
X198216662Y-124786440D01*
X198355481Y-124977508D01*
X198355487Y-124977515D01*
X198522484Y-125144512D01*
X198522490Y-125144517D01*
X198713567Y-125283343D01*
X198924008Y-125390568D01*
X199148632Y-125463553D01*
X199381908Y-125500500D01*
X199618092Y-125500500D01*
X199851368Y-125463553D01*
X200075992Y-125390568D01*
X200286433Y-125283343D01*
X200477510Y-125144517D01*
X200644517Y-124977510D01*
X200783343Y-124786433D01*
X200890568Y-124575992D01*
X200963553Y-124351368D01*
X201000500Y-124118092D01*
X201000500Y-119039500D01*
X201020713Y-118898915D01*
X201079714Y-118769720D01*
X201172724Y-118662381D01*
X201292208Y-118585594D01*
X201428485Y-118545579D01*
X201499500Y-118540500D01*
X206578092Y-118540500D01*
X206811368Y-118503553D01*
X207035992Y-118430568D01*
X207246434Y-118323343D01*
X207437510Y-118184517D01*
X210144517Y-115477510D01*
X210283343Y-115286434D01*
X210390568Y-115075993D01*
X210419886Y-114985761D01*
X210426342Y-114965893D01*
X210426342Y-114965889D01*
X210463553Y-114851368D01*
X210500500Y-114618092D01*
X210500500Y-112368880D01*
X214499500Y-112368880D01*
X214499500Y-112631120D01*
X214501810Y-112648667D01*
X214533729Y-112891114D01*
X214567666Y-113017767D01*
X214601075Y-113142454D01*
X214601603Y-113144421D01*
X214701955Y-113386694D01*
X214833071Y-113613795D01*
X214833081Y-113613810D01*
X214992717Y-113821851D01*
X215178148Y-114007282D01*
X215386189Y-114166918D01*
X215386197Y-114166924D01*
X215613303Y-114298043D01*
X215855581Y-114398398D01*
X216108884Y-114466270D01*
X216368880Y-114500500D01*
X216368881Y-114500500D01*
X216631119Y-114500500D01*
X216631120Y-114500500D01*
X216891116Y-114466270D01*
X217144419Y-114398398D01*
X217386697Y-114298043D01*
X217613803Y-114166924D01*
X217821851Y-114007282D01*
X218007282Y-113821851D01*
X218166924Y-113613803D01*
X218298043Y-113386697D01*
X218398398Y-113144419D01*
X218466270Y-112891116D01*
X218500500Y-112631120D01*
X218500500Y-112368880D01*
X257499500Y-112368880D01*
X257499500Y-112631120D01*
X257501810Y-112648667D01*
X257533729Y-112891114D01*
X257567666Y-113017767D01*
X257601075Y-113142454D01*
X257601603Y-113144421D01*
X257701955Y-113386694D01*
X257833071Y-113613795D01*
X257833081Y-113613810D01*
X257992717Y-113821851D01*
X258178148Y-114007282D01*
X258386189Y-114166918D01*
X258386197Y-114166924D01*
X258613303Y-114298043D01*
X258855581Y-114398398D01*
X259108884Y-114466270D01*
X259368880Y-114500500D01*
X259368881Y-114500500D01*
X259631119Y-114500500D01*
X259631120Y-114500500D01*
X259891116Y-114466270D01*
X260144419Y-114398398D01*
X260386697Y-114298043D01*
X260613803Y-114166924D01*
X260821851Y-114007282D01*
X261007282Y-113821851D01*
X261166924Y-113613803D01*
X261298043Y-113386697D01*
X261398398Y-113144419D01*
X261466270Y-112891116D01*
X261500500Y-112631120D01*
X261500500Y-112368880D01*
X261466270Y-112108884D01*
X261398398Y-111855581D01*
X261298043Y-111613303D01*
X261166924Y-111386197D01*
X261141931Y-111353626D01*
X261007282Y-111178148D01*
X260821851Y-110992717D01*
X260613810Y-110833081D01*
X260613806Y-110833078D01*
X260613803Y-110833076D01*
X260613799Y-110833073D01*
X260613795Y-110833071D01*
X260386694Y-110701955D01*
X260189168Y-110620137D01*
X260144419Y-110601602D01*
X259972632Y-110555572D01*
X259891114Y-110533729D01*
X259670538Y-110504689D01*
X259631120Y-110499500D01*
X259368880Y-110499500D01*
X259334651Y-110504006D01*
X259108885Y-110533729D01*
X258952245Y-110575701D01*
X258855581Y-110601602D01*
X258855579Y-110601602D01*
X258855578Y-110601603D01*
X258613305Y-110701955D01*
X258386204Y-110833071D01*
X258386189Y-110833081D01*
X258178148Y-110992717D01*
X257992717Y-111178148D01*
X257833081Y-111386189D01*
X257833071Y-111386204D01*
X257701955Y-111613305D01*
X257601603Y-111855578D01*
X257533729Y-112108885D01*
X257511071Y-112280992D01*
X257499500Y-112368880D01*
X218500500Y-112368880D01*
X218466270Y-112108884D01*
X218398398Y-111855581D01*
X218298043Y-111613303D01*
X218166924Y-111386197D01*
X218141931Y-111353626D01*
X218007282Y-111178148D01*
X217821851Y-110992717D01*
X217613810Y-110833081D01*
X217613806Y-110833078D01*
X217613803Y-110833076D01*
X217613799Y-110833073D01*
X217613795Y-110833071D01*
X217386694Y-110701955D01*
X217189168Y-110620137D01*
X217144419Y-110601602D01*
X216972632Y-110555572D01*
X216891114Y-110533729D01*
X216670538Y-110504689D01*
X216631120Y-110499500D01*
X216368880Y-110499500D01*
X216334651Y-110504006D01*
X216108885Y-110533729D01*
X215952245Y-110575701D01*
X215855581Y-110601602D01*
X215855579Y-110601602D01*
X215855578Y-110601603D01*
X215613305Y-110701955D01*
X215386204Y-110833071D01*
X215386189Y-110833081D01*
X215178148Y-110992717D01*
X214992717Y-111178148D01*
X214833081Y-111386189D01*
X214833071Y-111386204D01*
X214701955Y-111613305D01*
X214601603Y-111855578D01*
X214533729Y-112108885D01*
X214511071Y-112280992D01*
X214499500Y-112368880D01*
X210500500Y-112368880D01*
X210500500Y-79181908D01*
X210500500Y-69368881D01*
X214499500Y-69368881D01*
X214499500Y-69631118D01*
X214533729Y-69891114D01*
X214541600Y-69920487D01*
X214586566Y-70088305D01*
X214601603Y-70144421D01*
X214701955Y-70386694D01*
X214833071Y-70613795D01*
X214833081Y-70613810D01*
X214992717Y-70821851D01*
X215178148Y-71007282D01*
X215386189Y-71166918D01*
X215386197Y-71166924D01*
X215613303Y-71298043D01*
X215855581Y-71398398D01*
X216108884Y-71466270D01*
X216368880Y-71500500D01*
X216368881Y-71500500D01*
X216631119Y-71500500D01*
X216631120Y-71500500D01*
X216891116Y-71466270D01*
X217144419Y-71398398D01*
X217386697Y-71298043D01*
X217613803Y-71166924D01*
X217821851Y-71007282D01*
X218007282Y-70821851D01*
X218166924Y-70613803D01*
X218298043Y-70386697D01*
X218398398Y-70144419D01*
X218466270Y-69891116D01*
X218500500Y-69631120D01*
X218500500Y-69368881D01*
X257499500Y-69368881D01*
X257499500Y-69631118D01*
X257533729Y-69891114D01*
X257541600Y-69920487D01*
X257586566Y-70088305D01*
X257601603Y-70144421D01*
X257701955Y-70386694D01*
X257833071Y-70613795D01*
X257833081Y-70613810D01*
X257992717Y-70821851D01*
X258178148Y-71007282D01*
X258386189Y-71166918D01*
X258386197Y-71166924D01*
X258613303Y-71298043D01*
X258855581Y-71398398D01*
X259108884Y-71466270D01*
X259368880Y-71500500D01*
X259368881Y-71500500D01*
X259631119Y-71500500D01*
X259631120Y-71500500D01*
X259891116Y-71466270D01*
X260144419Y-71398398D01*
X260386697Y-71298043D01*
X260613803Y-71166924D01*
X260821851Y-71007282D01*
X261007282Y-70821851D01*
X261166924Y-70613803D01*
X261298043Y-70386697D01*
X261398398Y-70144419D01*
X261466270Y-69891116D01*
X261500500Y-69631120D01*
X261500500Y-69368880D01*
X261466270Y-69108884D01*
X261398398Y-68855581D01*
X261298043Y-68613303D01*
X261166924Y-68386197D01*
X261166918Y-68386189D01*
X261007282Y-68178148D01*
X260821851Y-67992717D01*
X260613810Y-67833081D01*
X260613806Y-67833078D01*
X260613803Y-67833076D01*
X260613799Y-67833073D01*
X260613795Y-67833071D01*
X260386694Y-67701955D01*
X260144421Y-67601603D01*
X260144422Y-67601603D01*
X260144419Y-67601602D01*
X259994901Y-67561539D01*
X259891114Y-67533729D01*
X259670538Y-67504689D01*
X259631120Y-67499500D01*
X259368880Y-67499500D01*
X259334651Y-67504006D01*
X259108885Y-67533729D01*
X258909108Y-67587259D01*
X258855581Y-67601602D01*
X258855579Y-67601602D01*
X258855578Y-67601603D01*
X258613305Y-67701955D01*
X258386204Y-67833071D01*
X258386189Y-67833081D01*
X258178148Y-67992717D01*
X257992717Y-68178148D01*
X257833081Y-68386189D01*
X257833071Y-68386204D01*
X257701955Y-68613305D01*
X257601603Y-68855578D01*
X257601602Y-68855581D01*
X257596032Y-68876368D01*
X257533729Y-69108885D01*
X257499500Y-69368881D01*
X218500500Y-69368881D01*
X218500500Y-69368880D01*
X218466270Y-69108884D01*
X218398398Y-68855581D01*
X218298043Y-68613303D01*
X218166924Y-68386197D01*
X218166918Y-68386189D01*
X218007282Y-68178148D01*
X217821851Y-67992717D01*
X217613810Y-67833081D01*
X217613806Y-67833078D01*
X217613803Y-67833076D01*
X217613799Y-67833073D01*
X217613795Y-67833071D01*
X217386694Y-67701955D01*
X217144421Y-67601603D01*
X217144422Y-67601603D01*
X217144419Y-67601602D01*
X216994901Y-67561539D01*
X216891114Y-67533729D01*
X216670538Y-67504689D01*
X216631120Y-67499500D01*
X216368880Y-67499500D01*
X216334651Y-67504006D01*
X216108885Y-67533729D01*
X215909108Y-67587259D01*
X215855581Y-67601602D01*
X215855579Y-67601602D01*
X215855578Y-67601603D01*
X215613305Y-67701955D01*
X215386204Y-67833071D01*
X215386189Y-67833081D01*
X215178148Y-67992717D01*
X214992717Y-68178148D01*
X214833081Y-68386189D01*
X214833071Y-68386204D01*
X214701955Y-68613305D01*
X214601603Y-68855578D01*
X214601602Y-68855581D01*
X214596032Y-68876368D01*
X214533729Y-69108885D01*
X214499500Y-69368881D01*
X210500500Y-69368881D01*
X210500500Y-63881908D01*
X210486010Y-63790424D01*
X210463553Y-63648632D01*
X210463551Y-63648626D01*
X210390572Y-63424020D01*
X210390571Y-63424018D01*
X210390568Y-63424008D01*
X210283343Y-63213567D01*
X210144517Y-63022490D01*
X210144512Y-63022484D01*
X209977515Y-62855487D01*
X209977508Y-62855481D01*
X209786440Y-62716662D01*
X209786438Y-62716661D01*
X209786433Y-62716657D01*
X209786430Y-62716655D01*
X209786428Y-62716654D01*
X209575996Y-62609434D01*
X209575995Y-62609433D01*
X209575992Y-62609432D01*
X209575987Y-62609430D01*
X209575979Y-62609427D01*
X209351373Y-62536448D01*
X209351367Y-62536446D01*
X209118092Y-62499500D01*
X207449913Y-62499500D01*
X207371853Y-62493356D01*
X207327689Y-62486361D01*
X207158096Y-62459500D01*
X207158092Y-62459500D01*
X205368092Y-62459500D01*
X201618092Y-62459500D01*
X198788219Y-62459500D01*
X198647634Y-62439287D01*
X198518439Y-62380286D01*
X198435373Y-62313346D01*
X197977511Y-61855484D01*
X197977510Y-61855483D01*
X197786434Y-61716657D01*
X197786433Y-61716656D01*
X197786431Y-61716655D01*
X197786424Y-61716651D01*
X197575997Y-61609434D01*
X197575979Y-61609427D01*
X197351373Y-61536448D01*
X197351367Y-61536446D01*
X197118092Y-61499500D01*
X185328220Y-61499500D01*
X185187635Y-61479287D01*
X185058440Y-61420286D01*
X184975374Y-61353346D01*
X184822695Y-61200667D01*
X184737579Y-61086966D01*
X184687945Y-60953891D01*
X184676541Y-60847821D01*
X184676541Y-53599499D01*
X184696754Y-53458914D01*
X184755755Y-53329719D01*
X184848765Y-53222380D01*
X184968249Y-53145593D01*
X185104526Y-53105578D01*
X185175541Y-53100499D01*
X185523917Y-53100499D01*
X185523920Y-53100498D01*
X185583524Y-53094091D01*
X185718372Y-53043796D01*
X185833587Y-52957546D01*
X185919837Y-52842331D01*
X185970132Y-52707483D01*
X185976541Y-52647873D01*
X185976540Y-50152128D01*
X185970132Y-50092517D01*
X185919837Y-49957669D01*
X185833587Y-49842454D01*
X185718372Y-49756204D01*
X185718368Y-49756202D01*
X185718365Y-49756201D01*
X185583526Y-49705909D01*
X185563654Y-49703772D01*
X185523914Y-49699500D01*
X185523910Y-49699500D01*
X184048601Y-49699500D01*
X183908016Y-49679287D01*
X183822062Y-49645113D01*
X183752038Y-49609434D01*
X183752020Y-49609427D01*
X183527414Y-49536448D01*
X183527408Y-49536446D01*
X183294133Y-49499500D01*
X175998775Y-49499500D01*
X175858190Y-49479287D01*
X175728995Y-49420286D01*
X175621656Y-49327276D01*
X175544869Y-49207792D01*
X175504854Y-49071515D01*
X175504854Y-48929485D01*
X175544869Y-48793208D01*
X175621656Y-48673724D01*
X175695002Y-48604618D01*
X175821851Y-48507282D01*
X176007282Y-48321851D01*
X176160842Y-48121729D01*
X176166924Y-48113803D01*
X176298043Y-47886697D01*
X176398398Y-47644419D01*
X176466270Y-47391116D01*
X176500500Y-47131120D01*
X176500500Y-46868880D01*
X176466270Y-46608884D01*
X176398398Y-46355581D01*
X176298043Y-46113303D01*
X176166924Y-45886197D01*
X176166773Y-45886000D01*
X176007282Y-45678148D01*
X175821851Y-45492717D01*
X175613810Y-45333081D01*
X175613806Y-45333078D01*
X175613803Y-45333076D01*
X175613799Y-45333073D01*
X175613795Y-45333071D01*
X175386694Y-45201955D01*
X175144421Y-45101603D01*
X175144422Y-45101603D01*
X175144419Y-45101602D01*
X175017767Y-45067666D01*
X174891114Y-45033729D01*
X174670538Y-45004689D01*
X174631120Y-44999500D01*
X174368880Y-44999500D01*
X174334651Y-45004006D01*
X174108885Y-45033729D01*
X173909108Y-45087259D01*
X173855581Y-45101602D01*
X173855579Y-45101602D01*
X173855578Y-45101603D01*
X173613305Y-45201955D01*
X173386204Y-45333071D01*
X173386189Y-45333081D01*
X173178148Y-45492717D01*
X172992717Y-45678148D01*
X172833081Y-45886189D01*
X172833071Y-45886204D01*
X172701955Y-46113305D01*
X172601603Y-46355578D01*
X172601602Y-46355581D01*
X172587259Y-46409108D01*
X172533729Y-46608885D01*
X172499500Y-46868881D01*
X172499500Y-47131118D01*
X172533729Y-47391114D01*
X172601603Y-47644421D01*
X172701955Y-47886694D01*
X172833071Y-48113795D01*
X172833081Y-48113810D01*
X172992717Y-48321851D01*
X173178148Y-48507282D01*
X173304998Y-48604618D01*
X173404226Y-48706237D01*
X173470806Y-48831695D01*
X173499342Y-48970829D01*
X173487524Y-49112367D01*
X173436309Y-49244841D01*
X173349846Y-49357521D01*
X173235140Y-49441277D01*
X173101484Y-49489324D01*
X173001225Y-49499500D01*
X156828220Y-49499500D01*
X156687635Y-49479287D01*
X156558440Y-49420286D01*
X156475374Y-49353346D01*
X153121729Y-45999701D01*
X153036613Y-45886000D01*
X152986979Y-45752925D01*
X152979844Y-45711987D01*
X152966270Y-45608886D01*
X152966270Y-45608885D01*
X152966270Y-45608884D01*
X152898398Y-45355581D01*
X152798043Y-45113303D01*
X152666924Y-44886197D01*
X152666918Y-44886189D01*
X152507282Y-44678148D01*
X152321851Y-44492717D01*
X152113810Y-44333081D01*
X152113806Y-44333078D01*
X152113803Y-44333076D01*
X152113799Y-44333073D01*
X152113795Y-44333071D01*
X151886694Y-44201955D01*
X151644421Y-44101603D01*
X151644422Y-44101603D01*
X151644419Y-44101602D01*
X151517767Y-44067666D01*
X151391114Y-44033729D01*
X151170538Y-44004689D01*
X151131120Y-43999500D01*
X150868880Y-43999500D01*
X150834651Y-44004006D01*
X150608885Y-44033729D01*
X150409108Y-44087259D01*
X150355581Y-44101602D01*
X150355579Y-44101602D01*
X150355578Y-44101603D01*
X150113305Y-44201955D01*
X149886204Y-44333071D01*
X149886189Y-44333081D01*
X149678148Y-44492717D01*
X149492717Y-44678148D01*
X149333081Y-44886189D01*
X149333071Y-44886204D01*
X149201955Y-45113305D01*
X149101603Y-45355578D01*
X149033729Y-45608885D01*
X148999500Y-45868881D01*
X143153637Y-45868881D01*
X143007282Y-45678148D01*
X142821851Y-45492717D01*
X142613810Y-45333081D01*
X142613806Y-45333078D01*
X142613803Y-45333076D01*
X142613799Y-45333073D01*
X142613795Y-45333071D01*
X142386694Y-45201955D01*
X142144421Y-45101603D01*
X142144422Y-45101603D01*
X142144419Y-45101602D01*
X142017767Y-45067666D01*
X141891114Y-45033729D01*
X141670538Y-45004689D01*
X141631120Y-44999500D01*
X141368880Y-44999500D01*
X141334651Y-45004006D01*
X141108885Y-45033729D01*
X140909108Y-45087259D01*
X140855581Y-45101602D01*
X140855579Y-45101602D01*
X140855578Y-45101603D01*
X140613305Y-45201955D01*
X140386204Y-45333071D01*
X140386189Y-45333081D01*
X140178148Y-45492717D01*
X139992717Y-45678148D01*
X139833081Y-45886189D01*
X139833071Y-45886204D01*
X139701955Y-46113305D01*
X139601603Y-46355578D01*
X139601602Y-46355581D01*
X139587259Y-46409108D01*
X139533729Y-46608885D01*
X139499500Y-46868881D01*
X129140500Y-46868881D01*
X129140500Y-39039500D01*
X129160713Y-38898915D01*
X129219714Y-38769720D01*
X129312724Y-38662381D01*
X129432208Y-38585594D01*
X129568485Y-38545579D01*
X129639500Y-38540500D01*
X265460500Y-38540500D01*
X265601085Y-38560713D01*
X265730280Y-38619714D01*
X265837619Y-38712724D01*
X265914406Y-38832208D01*
X265954421Y-38968485D01*
X265959500Y-39039500D01*
X265959500Y-88257153D01*
X265939287Y-88397738D01*
X265880286Y-88526933D01*
X265787276Y-88634272D01*
X265667792Y-88711059D01*
X265531515Y-88751074D01*
X265460500Y-88756153D01*
X261460032Y-88756153D01*
X261460032Y-94783164D01*
X265460500Y-94783164D01*
X265601085Y-94803377D01*
X265730280Y-94862378D01*
X265837619Y-94955388D01*
X265914406Y-95074872D01*
X265954421Y-95211149D01*
X265959500Y-95282164D01*
X265959500Y-143460500D01*
X265939287Y-143601085D01*
X265880286Y-143730280D01*
X265787276Y-143837619D01*
X265667792Y-143914406D01*
X265531515Y-143954421D01*
X265460500Y-143959500D01*
X30039500Y-143959500D01*
X29898915Y-143939287D01*
X29769720Y-143880286D01*
X29662381Y-143787276D01*
X29585594Y-143667792D01*
X29545579Y-143531515D01*
X29540500Y-143460500D01*
X29540500Y-120859567D01*
X40499500Y-120859567D01*
X40499500Y-121140432D01*
X40530943Y-121419503D01*
X40530945Y-121419513D01*
X40593437Y-121693308D01*
X40593439Y-121693314D01*
X40593440Y-121693318D01*
X40686199Y-121958408D01*
X40763580Y-122119091D01*
X40808056Y-122211447D01*
X40813775Y-122220548D01*
X40957477Y-122449248D01*
X40957479Y-122449251D01*
X40957482Y-122449255D01*
X41132574Y-122668814D01*
X41132585Y-122668826D01*
X41331173Y-122867414D01*
X41331185Y-122867425D01*
X41550744Y-123042517D01*
X41550752Y-123042523D01*
X41788555Y-123191945D01*
X42041592Y-123313801D01*
X42306682Y-123406560D01*
X42306691Y-123406562D01*
X42580486Y-123469054D01*
X42580496Y-123469056D01*
X42808147Y-123494705D01*
X42859575Y-123500500D01*
X42859576Y-123500500D01*
X43140424Y-123500500D01*
X43140425Y-123500500D01*
X43250595Y-123488086D01*
X43419503Y-123469056D01*
X43419506Y-123469055D01*
X43419509Y-123469055D01*
X43693318Y-123406560D01*
X43958408Y-123313801D01*
X44211445Y-123191945D01*
X44449248Y-123042523D01*
X44668825Y-122867416D01*
X44867416Y-122668825D01*
X45042523Y-122449248D01*
X45191945Y-122211445D01*
X45313801Y-121958408D01*
X45406560Y-121693318D01*
X45469055Y-121419509D01*
X45500500Y-121140425D01*
X45500500Y-120859575D01*
X45481573Y-120691592D01*
X45469056Y-120580496D01*
X45469054Y-120580486D01*
X45406562Y-120306691D01*
X45406560Y-120306682D01*
X45313801Y-120041592D01*
X45191945Y-119788555D01*
X45042523Y-119550752D01*
X45011543Y-119511904D01*
X44867425Y-119331185D01*
X44867414Y-119331173D01*
X44668826Y-119132585D01*
X44668814Y-119132574D01*
X44449255Y-118957482D01*
X44449251Y-118957479D01*
X44449248Y-118957477D01*
X44249765Y-118832133D01*
X44211447Y-118808056D01*
X44211445Y-118808055D01*
X43958408Y-118686199D01*
X43693318Y-118593440D01*
X43693314Y-118593439D01*
X43693308Y-118593437D01*
X43419513Y-118530945D01*
X43419503Y-118530943D01*
X43140432Y-118499500D01*
X43140425Y-118499500D01*
X42859575Y-118499500D01*
X42859567Y-118499500D01*
X42580496Y-118530943D01*
X42580486Y-118530945D01*
X42306691Y-118593437D01*
X42306679Y-118593441D01*
X42041597Y-118686197D01*
X42041595Y-118686197D01*
X42041592Y-118686199D01*
X41920543Y-118744492D01*
X41788552Y-118808056D01*
X41550744Y-118957482D01*
X41331185Y-119132574D01*
X41331173Y-119132585D01*
X41132585Y-119331173D01*
X41132574Y-119331185D01*
X40957482Y-119550744D01*
X40808056Y-119788552D01*
X40766311Y-119875237D01*
X40695277Y-120022743D01*
X40686197Y-120041597D01*
X40593441Y-120306679D01*
X40593437Y-120306691D01*
X40530945Y-120580486D01*
X40530943Y-120580496D01*
X40499500Y-120859567D01*
X29540500Y-120859567D01*
X29540500Y-89381908D01*
X46099500Y-89381908D01*
X46099500Y-107881908D01*
X46099500Y-108118092D01*
X46099687Y-108119272D01*
X46099687Y-108119278D01*
X46136446Y-108351367D01*
X46136448Y-108351373D01*
X46209427Y-108575979D01*
X46209434Y-108575997D01*
X46316651Y-108786424D01*
X46316655Y-108786431D01*
X46316657Y-108786434D01*
X46455483Y-108977510D01*
X46455484Y-108977511D01*
X52337428Y-114859456D01*
X52422544Y-114973157D01*
X52429194Y-114985761D01*
X52492696Y-115110390D01*
X52492698Y-115110393D01*
X52493513Y-115111515D01*
X52631521Y-115301466D01*
X52798533Y-115468478D01*
X52989601Y-115607298D01*
X52989602Y-115607299D01*
X52989604Y-115607300D01*
X52989607Y-115607302D01*
X53054729Y-115640483D01*
X53182993Y-115705837D01*
X53188324Y-115708553D01*
X53200049Y-115714527D01*
X53424673Y-115787512D01*
X53657949Y-115824459D01*
X65718092Y-115824459D01*
X65951368Y-115787512D01*
X66175992Y-115714527D01*
X66386433Y-115607302D01*
X66577510Y-115468476D01*
X66744517Y-115301469D01*
X66883343Y-115110392D01*
X66990568Y-114899951D01*
X67063553Y-114675327D01*
X67100500Y-114442051D01*
X67100500Y-114205867D01*
X67063553Y-113972591D01*
X66990568Y-113747967D01*
X66883343Y-113537526D01*
X66812632Y-113440201D01*
X66744518Y-113346450D01*
X66744512Y-113346443D01*
X66577515Y-113179446D01*
X66577508Y-113179440D01*
X66386440Y-113040621D01*
X66386438Y-113040620D01*
X66386433Y-113040616D01*
X66386430Y-113040614D01*
X66386428Y-113040613D01*
X66175996Y-112933393D01*
X66175995Y-112933392D01*
X66175992Y-112933391D01*
X66175987Y-112933389D01*
X66175979Y-112933386D01*
X65951373Y-112860407D01*
X65951367Y-112860405D01*
X65718092Y-112823459D01*
X60919582Y-112823459D01*
X60778997Y-112803246D01*
X60693042Y-112769072D01*
X60575992Y-112709432D01*
X60575987Y-112709430D01*
X60575979Y-112709427D01*
X60351373Y-112636448D01*
X60351367Y-112636446D01*
X60118092Y-112599500D01*
X59881908Y-112599500D01*
X59648632Y-112636446D01*
X59648626Y-112636448D01*
X59424020Y-112709427D01*
X59424008Y-112709432D01*
X59306958Y-112769072D01*
X59172520Y-112814886D01*
X59080418Y-112823459D01*
X54752179Y-112823459D01*
X54611594Y-112803246D01*
X54482399Y-112744245D01*
X54399333Y-112677305D01*
X49246654Y-107524626D01*
X49161538Y-107410925D01*
X49111904Y-107277850D01*
X49100500Y-107171780D01*
X49100500Y-90328219D01*
X49120713Y-90187634D01*
X49179714Y-90058439D01*
X49246654Y-89975373D01*
X50175373Y-89046654D01*
X50289074Y-88961538D01*
X50422149Y-88911904D01*
X50528219Y-88900500D01*
X56597165Y-88900500D01*
X56737750Y-88920713D01*
X56866945Y-88979714D01*
X56974284Y-89072724D01*
X57013696Y-89124722D01*
X57044900Y-89172023D01*
X57056204Y-89202331D01*
X57129359Y-89300053D01*
X57137527Y-89312435D01*
X57161534Y-89363384D01*
X57188533Y-89412827D01*
X57191706Y-89427415D01*
X57198068Y-89440916D01*
X57206749Y-89496565D01*
X57218724Y-89551611D01*
X57217659Y-89566499D01*
X57219960Y-89581248D01*
X57212611Y-89637092D01*
X57208593Y-89693280D01*
X57203244Y-89708271D01*
X57201429Y-89722065D01*
X57185364Y-89758384D01*
X57165610Y-89813751D01*
X57109432Y-89924006D01*
X57109427Y-89924020D01*
X57036448Y-90148626D01*
X57036446Y-90148632D01*
X56999500Y-90381907D01*
X56999500Y-90618092D01*
X57036446Y-90851367D01*
X57036448Y-90851373D01*
X57109427Y-91075979D01*
X57109434Y-91075996D01*
X57225558Y-91303902D01*
X57223441Y-91304980D01*
X57268797Y-91410200D01*
X57285995Y-91551185D01*
X57262776Y-91691305D01*
X57201021Y-91819207D01*
X57105734Y-91924530D01*
X56984634Y-91998741D01*
X56847531Y-92035828D01*
X56787109Y-92039500D01*
X53098541Y-92039500D01*
X52901459Y-92039500D01*
X52708165Y-92077949D01*
X52708162Y-92077949D01*
X52708159Y-92077951D01*
X52526090Y-92153366D01*
X52526078Y-92153372D01*
X52362222Y-92262857D01*
X52362211Y-92262866D01*
X52222866Y-92402211D01*
X52222857Y-92402222D01*
X52113372Y-92566078D01*
X52113366Y-92566090D01*
X52062611Y-92688626D01*
X52037949Y-92748165D01*
X52003390Y-92921907D01*
X51999500Y-92941461D01*
X51999500Y-105398543D01*
X52030736Y-105555579D01*
X52030737Y-105555579D01*
X52037949Y-105591837D01*
X52113367Y-105773912D01*
X52113372Y-105773921D01*
X52222857Y-105937777D01*
X52222866Y-105937788D01*
X52390654Y-106105576D01*
X52390668Y-106105588D01*
X55062212Y-108777134D01*
X55062216Y-108777137D01*
X55062219Y-108777140D01*
X55226086Y-108886632D01*
X55327640Y-108928697D01*
X55408161Y-108962051D01*
X55408164Y-108962051D01*
X55408165Y-108962052D01*
X55601460Y-109000501D01*
X55601464Y-109000501D01*
X55671781Y-109000501D01*
X55812366Y-109020714D01*
X55941561Y-109079715D01*
X56007006Y-109132454D01*
X56007580Y-109131783D01*
X56022490Y-109144517D01*
X56213567Y-109283343D01*
X56424008Y-109390568D01*
X56648632Y-109463553D01*
X56881908Y-109500500D01*
X57118092Y-109500500D01*
X57351368Y-109463553D01*
X57575992Y-109390568D01*
X57786433Y-109283343D01*
X57977510Y-109144517D01*
X58144517Y-108977510D01*
X58283343Y-108786433D01*
X58390568Y-108575992D01*
X58463553Y-108351368D01*
X58500500Y-108118092D01*
X58500500Y-107881908D01*
X58498127Y-107866928D01*
X58463553Y-107648632D01*
X58463551Y-107648626D01*
X58390572Y-107424020D01*
X58390571Y-107424018D01*
X58390568Y-107424008D01*
X58283343Y-107213567D01*
X58144517Y-107022490D01*
X58144512Y-107022484D01*
X57977515Y-106855487D01*
X57977508Y-106855481D01*
X57786440Y-106716662D01*
X57786438Y-106716661D01*
X57786433Y-106716657D01*
X57786430Y-106716655D01*
X57786428Y-106716654D01*
X57575996Y-106609434D01*
X57575995Y-106609433D01*
X57575992Y-106609432D01*
X57575987Y-106609430D01*
X57575979Y-106609427D01*
X57351373Y-106536448D01*
X57351367Y-106536446D01*
X57118092Y-106499500D01*
X56881908Y-106499500D01*
X56648632Y-106536446D01*
X56648626Y-106536448D01*
X56424020Y-106609427D01*
X56424008Y-106609432D01*
X56283542Y-106681003D01*
X56149104Y-106726817D01*
X56007204Y-106732899D01*
X55869339Y-106698757D01*
X55746676Y-106627157D01*
X55704156Y-106589236D01*
X54964845Y-105849925D01*
X54146654Y-105031733D01*
X54061538Y-104918032D01*
X54011904Y-104784957D01*
X54000500Y-104678887D01*
X54000500Y-98001907D01*
X56999500Y-98001907D01*
X56999500Y-98238092D01*
X57036446Y-98471367D01*
X57036448Y-98471373D01*
X57109427Y-98695979D01*
X57109434Y-98695996D01*
X57216654Y-98906428D01*
X57216662Y-98906440D01*
X57355481Y-99097508D01*
X57355487Y-99097515D01*
X57522484Y-99264512D01*
X57522490Y-99264517D01*
X57713567Y-99403343D01*
X57924008Y-99510568D01*
X58148632Y-99583553D01*
X58381908Y-99620500D01*
X58618092Y-99620500D01*
X58851368Y-99583553D01*
X59075992Y-99510568D01*
X59286433Y-99403343D01*
X59477510Y-99264517D01*
X59644517Y-99097510D01*
X59783343Y-98906433D01*
X59890568Y-98695992D01*
X59963553Y-98471368D01*
X60000500Y-98238092D01*
X60000500Y-98001908D01*
X59963553Y-97768632D01*
X59890568Y-97544008D01*
X59783343Y-97333567D01*
X59644517Y-97142490D01*
X59644512Y-97142484D01*
X59477515Y-96975487D01*
X59477508Y-96975481D01*
X59286440Y-96836662D01*
X59286438Y-96836661D01*
X59286433Y-96836657D01*
X59286430Y-96836655D01*
X59286428Y-96836654D01*
X59075996Y-96729434D01*
X59075995Y-96729433D01*
X59075992Y-96729432D01*
X59075987Y-96729430D01*
X59075979Y-96729427D01*
X58851373Y-96656448D01*
X58851367Y-96656446D01*
X58618092Y-96619500D01*
X58381908Y-96619500D01*
X58148632Y-96656446D01*
X58148626Y-96656448D01*
X57924020Y-96729427D01*
X57924003Y-96729434D01*
X57713571Y-96836654D01*
X57713559Y-96836662D01*
X57522491Y-96975481D01*
X57522484Y-96975487D01*
X57355487Y-97142484D01*
X57355481Y-97142491D01*
X57216662Y-97333559D01*
X57216654Y-97333571D01*
X57109434Y-97544003D01*
X57109427Y-97544020D01*
X57036448Y-97768626D01*
X57036446Y-97768632D01*
X56999500Y-98001907D01*
X54000500Y-98001907D01*
X54000500Y-94539500D01*
X54020713Y-94398915D01*
X54079714Y-94269720D01*
X54172724Y-94162381D01*
X54292208Y-94085594D01*
X54428485Y-94045579D01*
X54499500Y-94040500D01*
X57171780Y-94040500D01*
X57312365Y-94060713D01*
X57441560Y-94119714D01*
X57507006Y-94172454D01*
X57507580Y-94171783D01*
X57522490Y-94184517D01*
X57713567Y-94323343D01*
X57924008Y-94430568D01*
X57924018Y-94430571D01*
X57924020Y-94430572D01*
X58022617Y-94462608D01*
X58148632Y-94503553D01*
X58381908Y-94540500D01*
X58618092Y-94540500D01*
X58851368Y-94503553D01*
X59075992Y-94430568D01*
X59286433Y-94323343D01*
X59477510Y-94184517D01*
X59644517Y-94017510D01*
X59783343Y-93826433D01*
X59890568Y-93615992D01*
X59963553Y-93391368D01*
X60000500Y-93158092D01*
X60000500Y-92921908D01*
X59988881Y-92848551D01*
X59963553Y-92688632D01*
X59963551Y-92688626D01*
X59962580Y-92685639D01*
X59937408Y-92608165D01*
X59890573Y-92464021D01*
X59889971Y-92462568D01*
X59889494Y-92460702D01*
X59884510Y-92445361D01*
X59885496Y-92445040D01*
X59854841Y-92324951D01*
X59859905Y-92183011D01*
X59904753Y-92048247D01*
X59985752Y-91931578D01*
X60096340Y-91842454D01*
X60227556Y-91788097D01*
X60368772Y-91772909D01*
X60508547Y-91798122D01*
X60635556Y-91861693D01*
X60703826Y-91918746D01*
X61953346Y-93168266D01*
X62038462Y-93281967D01*
X62088096Y-93415042D01*
X62099500Y-93521112D01*
X62099500Y-101978886D01*
X62079287Y-102119471D01*
X62020286Y-102248666D01*
X61953344Y-102331734D01*
X61855378Y-102429699D01*
X61741677Y-102514814D01*
X61608602Y-102564448D01*
X61466933Y-102574579D01*
X61328149Y-102544388D01*
X61203492Y-102476320D01*
X61178462Y-102456295D01*
X61177514Y-102455486D01*
X60986440Y-102316662D01*
X60986438Y-102316661D01*
X60986433Y-102316657D01*
X60986430Y-102316655D01*
X60986428Y-102316654D01*
X60775996Y-102209434D01*
X60775995Y-102209433D01*
X60775992Y-102209432D01*
X60775987Y-102209430D01*
X60775979Y-102209427D01*
X60551373Y-102136448D01*
X60551367Y-102136446D01*
X60318092Y-102099500D01*
X60081908Y-102099500D01*
X59848632Y-102136446D01*
X59848626Y-102136448D01*
X59624020Y-102209427D01*
X59624003Y-102209434D01*
X59413571Y-102316654D01*
X59413559Y-102316662D01*
X59222491Y-102455481D01*
X59222484Y-102455487D01*
X59055487Y-102622484D01*
X59055481Y-102622491D01*
X58916662Y-102813559D01*
X58916654Y-102813571D01*
X58809434Y-103024003D01*
X58809427Y-103024020D01*
X58736448Y-103248626D01*
X58736446Y-103248632D01*
X58699500Y-103481907D01*
X58699500Y-103718092D01*
X58736446Y-103951367D01*
X58736448Y-103951373D01*
X58809427Y-104175979D01*
X58809434Y-104175996D01*
X58916654Y-104386428D01*
X58916662Y-104386440D01*
X59055481Y-104577508D01*
X59055487Y-104577515D01*
X59222484Y-104744512D01*
X59222491Y-104744518D01*
X59311840Y-104809434D01*
X59413567Y-104883343D01*
X59624008Y-104990568D01*
X59848632Y-105063553D01*
X60081908Y-105100500D01*
X60318092Y-105100500D01*
X60551368Y-105063553D01*
X60775992Y-104990568D01*
X60986433Y-104883343D01*
X61177510Y-104744517D01*
X61177514Y-104744512D01*
X61192420Y-104731783D01*
X61193519Y-104733070D01*
X61289075Y-104661538D01*
X61422150Y-104611904D01*
X61509827Y-104600839D01*
X61519017Y-104600500D01*
X62001460Y-104600500D01*
X62198540Y-104600500D01*
X62198541Y-104600500D01*
X62314118Y-104577510D01*
X62391836Y-104562051D01*
X62461787Y-104533076D01*
X62573914Y-104486632D01*
X62737782Y-104377139D01*
X62877139Y-104237782D01*
X62918117Y-104196804D01*
X62918186Y-104196732D01*
X63877140Y-103237781D01*
X63986632Y-103073914D01*
X64062052Y-102891835D01*
X64100501Y-102698540D01*
X64100501Y-102501459D01*
X64100501Y-102480858D01*
X64100500Y-102480832D01*
X64100500Y-93023196D01*
X64100501Y-93023175D01*
X64100501Y-92801463D01*
X64100501Y-92801460D01*
X64062052Y-92608165D01*
X64062051Y-92608164D01*
X64062051Y-92608161D01*
X64002345Y-92464021D01*
X63986632Y-92426086D01*
X63877140Y-92262219D01*
X63877137Y-92262216D01*
X63877134Y-92262212D01*
X61505588Y-89890668D01*
X61505576Y-89890654D01*
X61337788Y-89722866D01*
X61337781Y-89722860D01*
X61173917Y-89613370D01*
X61173916Y-89613369D01*
X61173914Y-89613368D01*
X61045165Y-89560038D01*
X61045160Y-89560035D01*
X60991841Y-89537951D01*
X60991833Y-89537948D01*
X60895193Y-89518724D01*
X60895193Y-89518725D01*
X60895188Y-89518724D01*
X60798541Y-89499500D01*
X60798539Y-89499500D01*
X60499500Y-89499500D01*
X60358915Y-89479287D01*
X60229720Y-89420286D01*
X60122381Y-89327276D01*
X60045594Y-89207792D01*
X60005579Y-89071515D01*
X60000500Y-89000501D01*
X60000500Y-88900500D01*
X60000499Y-88632558D01*
X60020712Y-88491976D01*
X60054885Y-88406022D01*
X60090568Y-88335992D01*
X60163553Y-88111368D01*
X60200500Y-87878092D01*
X60200500Y-81481908D01*
X60163553Y-81248632D01*
X60090568Y-81024008D01*
X59983343Y-80813567D01*
X59844517Y-80622490D01*
X59844512Y-80622484D01*
X59677515Y-80455487D01*
X59677508Y-80455481D01*
X59486440Y-80316662D01*
X59486438Y-80316661D01*
X59486433Y-80316657D01*
X59486430Y-80316655D01*
X59486428Y-80316654D01*
X59275996Y-80209434D01*
X59275995Y-80209433D01*
X59275992Y-80209432D01*
X59275987Y-80209430D01*
X59275979Y-80209427D01*
X59051373Y-80136448D01*
X59051367Y-80136446D01*
X58818092Y-80099500D01*
X58581908Y-80099500D01*
X58348632Y-80136446D01*
X58348626Y-80136448D01*
X58124020Y-80209427D01*
X58124003Y-80209434D01*
X57913571Y-80316654D01*
X57913559Y-80316662D01*
X57722491Y-80455481D01*
X57722484Y-80455487D01*
X57555487Y-80622484D01*
X57555481Y-80622491D01*
X57416662Y-80813559D01*
X57416654Y-80813571D01*
X57309434Y-81024003D01*
X57309427Y-81024020D01*
X57236448Y-81248626D01*
X57236446Y-81248632D01*
X57199500Y-81481907D01*
X57199500Y-85400500D01*
X57179287Y-85541085D01*
X57120286Y-85670280D01*
X57027276Y-85777619D01*
X56907792Y-85854406D01*
X56771515Y-85894421D01*
X56700500Y-85899500D01*
X49581908Y-85899500D01*
X49348631Y-85936447D01*
X49196997Y-85985714D01*
X49196998Y-85985715D01*
X49124005Y-86009432D01*
X49123999Y-86009435D01*
X48913569Y-86116654D01*
X48913562Y-86116659D01*
X48722492Y-86255480D01*
X46455484Y-88522488D01*
X46455483Y-88522490D01*
X46316655Y-88713568D01*
X46316651Y-88713575D01*
X46274714Y-88795881D01*
X46274713Y-88795884D01*
X46221410Y-88900500D01*
X46209432Y-88924008D01*
X46136447Y-89148632D01*
X46099500Y-89381908D01*
X29540500Y-89381908D01*
X29540500Y-68406907D01*
X68472000Y-68406907D01*
X68472000Y-68643092D01*
X68508946Y-68876367D01*
X68508948Y-68876373D01*
X68581927Y-69100979D01*
X68581930Y-69100987D01*
X68581932Y-69100992D01*
X68689157Y-69311433D01*
X68716118Y-69348541D01*
X68827391Y-69501695D01*
X68893671Y-69627312D01*
X68921877Y-69766513D01*
X68909723Y-69908022D01*
X68858193Y-70040375D01*
X68827391Y-70088305D01*
X68689156Y-70278568D01*
X68689154Y-70278571D01*
X68581934Y-70489003D01*
X68581927Y-70489020D01*
X68508948Y-70713626D01*
X68508946Y-70713632D01*
X68472000Y-70946907D01*
X68472000Y-71183092D01*
X68508946Y-71416367D01*
X68508948Y-71416373D01*
X68581927Y-71640979D01*
X68581934Y-71640996D01*
X68687756Y-71848685D01*
X68689157Y-71851433D01*
X68701261Y-71868092D01*
X68827391Y-72041695D01*
X68893671Y-72167312D01*
X68921877Y-72306513D01*
X68909723Y-72448022D01*
X68858193Y-72580375D01*
X68827391Y-72628305D01*
X68689156Y-72818568D01*
X68689154Y-72818571D01*
X68581934Y-73029003D01*
X68581927Y-73029020D01*
X68508948Y-73253626D01*
X68508946Y-73253632D01*
X68472000Y-73486907D01*
X68472000Y-73723092D01*
X68508946Y-73956367D01*
X68508948Y-73956373D01*
X68581927Y-74180979D01*
X68581934Y-74180996D01*
X68689154Y-74391428D01*
X68689162Y-74391440D01*
X68827981Y-74582508D01*
X68827987Y-74582515D01*
X68994984Y-74749512D01*
X68994990Y-74749517D01*
X69186067Y-74888343D01*
X69396508Y-74995568D01*
X69396518Y-74995571D01*
X69396520Y-74995572D01*
X69453765Y-75014172D01*
X69621132Y-75068553D01*
X69854408Y-75105500D01*
X70090592Y-75105500D01*
X70323868Y-75068553D01*
X70466524Y-75022200D01*
X70606468Y-74997983D01*
X70747573Y-75014172D01*
X70878400Y-75069460D01*
X70988352Y-75159366D01*
X71068521Y-75276608D01*
X71112411Y-75411686D01*
X71116468Y-75553659D01*
X71095298Y-75650977D01*
X71048946Y-75793632D01*
X71012000Y-76026907D01*
X71012000Y-76263092D01*
X71048946Y-76496367D01*
X71048948Y-76496374D01*
X71095297Y-76639021D01*
X71119517Y-76778971D01*
X71103326Y-76920076D01*
X71048038Y-77050903D01*
X70958131Y-77160854D01*
X70840889Y-77241022D01*
X70705810Y-77284912D01*
X70563838Y-77288967D01*
X70466521Y-77267797D01*
X70323874Y-77221448D01*
X70323867Y-77221446D01*
X70090592Y-77184500D01*
X69854408Y-77184500D01*
X69621132Y-77221446D01*
X69621126Y-77221448D01*
X69396520Y-77294427D01*
X69396503Y-77294434D01*
X69186071Y-77401654D01*
X69186059Y-77401662D01*
X68994991Y-77540481D01*
X68994984Y-77540487D01*
X68827987Y-77707484D01*
X68827981Y-77707491D01*
X68689162Y-77898559D01*
X68689154Y-77898571D01*
X68581934Y-78109003D01*
X68581927Y-78109020D01*
X68508948Y-78333626D01*
X68508946Y-78333632D01*
X68472000Y-78566907D01*
X68472000Y-78803092D01*
X68508946Y-79036367D01*
X68508948Y-79036373D01*
X68581927Y-79260979D01*
X68581934Y-79260996D01*
X68689154Y-79471428D01*
X68689162Y-79471440D01*
X68827981Y-79662508D01*
X68827987Y-79662515D01*
X68994984Y-79829512D01*
X68994990Y-79829517D01*
X69186067Y-79968343D01*
X69396508Y-80075568D01*
X69396518Y-80075571D01*
X69396520Y-80075572D01*
X69453765Y-80094172D01*
X69621132Y-80148553D01*
X69854408Y-80185500D01*
X70090592Y-80185500D01*
X70323868Y-80148553D01*
X70466524Y-80102200D01*
X70606468Y-80077983D01*
X70747573Y-80094172D01*
X70878400Y-80149460D01*
X70988352Y-80239366D01*
X71068521Y-80356608D01*
X71112411Y-80491686D01*
X71116468Y-80633659D01*
X71095298Y-80730977D01*
X71048946Y-80873632D01*
X71012000Y-81106907D01*
X71012000Y-81343092D01*
X71048946Y-81576367D01*
X71048948Y-81576374D01*
X71095297Y-81719021D01*
X71119517Y-81858971D01*
X71103326Y-82000076D01*
X71048038Y-82130903D01*
X70958131Y-82240854D01*
X70840889Y-82321022D01*
X70705810Y-82364912D01*
X70563838Y-82368967D01*
X70466521Y-82347797D01*
X70323874Y-82301448D01*
X70323867Y-82301446D01*
X70090592Y-82264500D01*
X69854408Y-82264500D01*
X69621132Y-82301446D01*
X69621126Y-82301448D01*
X69396520Y-82374427D01*
X69396503Y-82374434D01*
X69186071Y-82481654D01*
X69186059Y-82481662D01*
X68994991Y-82620481D01*
X68994984Y-82620487D01*
X68827987Y-82787484D01*
X68827981Y-82787491D01*
X68689162Y-82978559D01*
X68689154Y-82978571D01*
X68581934Y-83189003D01*
X68581927Y-83189020D01*
X68508948Y-83413626D01*
X68508946Y-83413632D01*
X68472000Y-83646907D01*
X68472000Y-83883092D01*
X68508946Y-84116367D01*
X68508948Y-84116373D01*
X68581927Y-84340979D01*
X68581930Y-84340987D01*
X68581932Y-84340992D01*
X68689157Y-84551433D01*
X68702500Y-84569798D01*
X68827391Y-84741695D01*
X68893671Y-84867312D01*
X68921877Y-85006513D01*
X68909723Y-85148022D01*
X68858193Y-85280375D01*
X68827391Y-85328305D01*
X68689156Y-85518568D01*
X68689154Y-85518571D01*
X68581934Y-85729003D01*
X68581927Y-85729020D01*
X68508948Y-85953626D01*
X68508946Y-85953632D01*
X68472000Y-86186907D01*
X68472000Y-86423092D01*
X68508946Y-86656367D01*
X68508948Y-86656373D01*
X68581927Y-86880979D01*
X68581934Y-86880996D01*
X68689154Y-87091428D01*
X68689156Y-87091431D01*
X68827391Y-87281695D01*
X68893671Y-87407312D01*
X68921877Y-87546513D01*
X68909723Y-87688022D01*
X68858193Y-87820375D01*
X68827391Y-87868305D01*
X68689156Y-88058568D01*
X68689154Y-88058571D01*
X68581934Y-88269003D01*
X68581927Y-88269020D01*
X68508948Y-88493626D01*
X68508946Y-88493632D01*
X68472000Y-88726907D01*
X68472000Y-88963092D01*
X68508946Y-89196367D01*
X68508948Y-89196373D01*
X68581927Y-89420979D01*
X68581934Y-89420996D01*
X68648485Y-89551611D01*
X68689157Y-89631433D01*
X68820002Y-89811525D01*
X68827391Y-89821695D01*
X68893671Y-89947312D01*
X68921877Y-90086513D01*
X68909723Y-90228022D01*
X68858193Y-90360375D01*
X68827391Y-90408305D01*
X68689156Y-90598568D01*
X68689154Y-90598571D01*
X68581934Y-90809003D01*
X68581927Y-90809020D01*
X68508948Y-91033626D01*
X68508946Y-91033632D01*
X68472000Y-91266907D01*
X68472000Y-91503092D01*
X68508946Y-91736367D01*
X68508948Y-91736373D01*
X68581927Y-91960979D01*
X68581934Y-91960996D01*
X68689154Y-92171428D01*
X68689162Y-92171440D01*
X68827981Y-92362508D01*
X68827987Y-92362515D01*
X68994984Y-92529512D01*
X68994990Y-92529517D01*
X69186067Y-92668343D01*
X69396508Y-92775568D01*
X69396518Y-92775571D01*
X69396520Y-92775572D01*
X69476195Y-92801460D01*
X69621132Y-92848553D01*
X69854408Y-92885500D01*
X70090592Y-92885500D01*
X70323868Y-92848553D01*
X70472275Y-92800332D01*
X70612222Y-92776114D01*
X70753327Y-92792303D01*
X70884154Y-92847591D01*
X70994106Y-92937498D01*
X71074274Y-93054739D01*
X71118164Y-93189818D01*
X71122221Y-93331790D01*
X71101052Y-93429105D01*
X71046484Y-93597052D01*
X71043484Y-93615996D01*
X71012000Y-93814778D01*
X71012000Y-94035222D01*
X71019978Y-94085594D01*
X71046484Y-94252951D01*
X71101051Y-94420893D01*
X71125270Y-94560843D01*
X71109078Y-94701947D01*
X71053789Y-94832774D01*
X70963882Y-94942725D01*
X70846639Y-95022892D01*
X70711560Y-95066781D01*
X70569588Y-95070836D01*
X70472275Y-95049667D01*
X70323866Y-95001446D01*
X70323867Y-95001446D01*
X70090592Y-94964500D01*
X69854408Y-94964500D01*
X69621132Y-95001446D01*
X69621126Y-95001448D01*
X69396520Y-95074427D01*
X69396503Y-95074434D01*
X69186071Y-95181654D01*
X69186059Y-95181662D01*
X68994991Y-95320481D01*
X68994984Y-95320487D01*
X68827987Y-95487484D01*
X68827981Y-95487491D01*
X68689162Y-95678559D01*
X68689154Y-95678571D01*
X68581934Y-95889003D01*
X68581927Y-95889020D01*
X68508948Y-96113626D01*
X68508946Y-96113632D01*
X68472000Y-96346907D01*
X68472000Y-96583092D01*
X68508946Y-96816367D01*
X68508948Y-96816373D01*
X68581927Y-97040979D01*
X68581934Y-97040996D01*
X68633644Y-97142484D01*
X68689157Y-97251433D01*
X68748831Y-97333567D01*
X68827391Y-97441695D01*
X68893671Y-97567312D01*
X68921877Y-97706513D01*
X68909723Y-97848022D01*
X68858193Y-97980375D01*
X68827391Y-98028305D01*
X68689156Y-98218568D01*
X68689154Y-98218571D01*
X68581934Y-98429003D01*
X68581927Y-98429020D01*
X68508948Y-98653626D01*
X68508946Y-98653632D01*
X68472000Y-98886907D01*
X68472000Y-99123092D01*
X68508946Y-99356367D01*
X68508948Y-99356373D01*
X68581927Y-99580979D01*
X68581934Y-99580996D01*
X68689154Y-99791428D01*
X68689162Y-99791440D01*
X68827981Y-99982508D01*
X68827987Y-99982515D01*
X68994984Y-100149512D01*
X68994990Y-100149517D01*
X69186067Y-100288343D01*
X69396508Y-100395568D01*
X69396518Y-100395571D01*
X69396520Y-100395572D01*
X69453765Y-100414172D01*
X69621132Y-100468553D01*
X69854408Y-100505500D01*
X70090592Y-100505500D01*
X70323868Y-100468553D01*
X70466524Y-100422200D01*
X70606468Y-100397983D01*
X70747573Y-100414172D01*
X70878400Y-100469460D01*
X70988352Y-100559366D01*
X71068521Y-100676608D01*
X71112411Y-100811686D01*
X71116468Y-100953659D01*
X71095298Y-101050977D01*
X71048946Y-101193632D01*
X71012000Y-101426907D01*
X71012000Y-101663092D01*
X71048946Y-101896367D01*
X71048948Y-101896374D01*
X71095297Y-102039021D01*
X71119517Y-102178971D01*
X71103326Y-102320076D01*
X71048038Y-102450903D01*
X70958131Y-102560854D01*
X70840889Y-102641022D01*
X70705810Y-102684912D01*
X70563838Y-102688967D01*
X70466521Y-102667797D01*
X70323874Y-102621448D01*
X70323867Y-102621446D01*
X70090592Y-102584500D01*
X69854408Y-102584500D01*
X69621132Y-102621446D01*
X69621126Y-102621448D01*
X69396520Y-102694427D01*
X69396503Y-102694434D01*
X69186071Y-102801654D01*
X69186059Y-102801662D01*
X68994991Y-102940481D01*
X68994984Y-102940487D01*
X68827987Y-103107484D01*
X68827981Y-103107491D01*
X68689162Y-103298559D01*
X68689154Y-103298571D01*
X68581934Y-103509003D01*
X68581927Y-103509020D01*
X68508948Y-103733626D01*
X68508946Y-103733632D01*
X68472000Y-103966907D01*
X68472000Y-104203092D01*
X68508946Y-104436367D01*
X68508948Y-104436373D01*
X68581927Y-104660979D01*
X68581934Y-104660996D01*
X68624490Y-104744518D01*
X68689157Y-104871433D01*
X68805622Y-105031733D01*
X68827391Y-105061695D01*
X68893671Y-105187312D01*
X68921877Y-105326513D01*
X68909723Y-105468022D01*
X68858193Y-105600375D01*
X68827391Y-105648305D01*
X68689156Y-105838568D01*
X68689154Y-105838571D01*
X68581934Y-106049003D01*
X68581927Y-106049020D01*
X68508948Y-106273626D01*
X68508946Y-106273632D01*
X68472000Y-106506907D01*
X68472000Y-106743092D01*
X68508946Y-106976367D01*
X68508948Y-106976373D01*
X68581927Y-107200979D01*
X68581934Y-107200996D01*
X68672362Y-107378472D01*
X68689157Y-107411433D01*
X68748701Y-107493388D01*
X68827391Y-107601695D01*
X68893671Y-107727312D01*
X68921877Y-107866513D01*
X68909723Y-108008022D01*
X68858193Y-108140375D01*
X68827392Y-108188303D01*
X68781927Y-108250879D01*
X68689156Y-108378568D01*
X68689154Y-108378571D01*
X68581934Y-108589003D01*
X68581927Y-108589020D01*
X68508948Y-108813626D01*
X68508946Y-108813632D01*
X68472000Y-109046907D01*
X68472000Y-109283092D01*
X68508946Y-109516367D01*
X68508948Y-109516373D01*
X68581927Y-109740979D01*
X68581934Y-109740996D01*
X68689154Y-109951428D01*
X68689162Y-109951440D01*
X68827981Y-110142508D01*
X68827987Y-110142515D01*
X68994984Y-110309512D01*
X68994991Y-110309518D01*
X69108304Y-110391845D01*
X69186067Y-110448343D01*
X69396508Y-110555568D01*
X69396518Y-110555571D01*
X69396520Y-110555572D01*
X69453765Y-110574172D01*
X69621132Y-110628553D01*
X69854408Y-110665500D01*
X70090592Y-110665500D01*
X70323868Y-110628553D01*
X70466524Y-110582200D01*
X70606468Y-110557983D01*
X70747573Y-110574172D01*
X70878400Y-110629460D01*
X70988352Y-110719366D01*
X71068521Y-110836608D01*
X71112411Y-110971686D01*
X71116468Y-111113659D01*
X71095298Y-111210977D01*
X71048946Y-111353632D01*
X71012000Y-111586907D01*
X71012000Y-111823092D01*
X71048946Y-112056367D01*
X71048948Y-112056374D01*
X71095297Y-112199021D01*
X71119517Y-112338971D01*
X71103326Y-112480076D01*
X71048038Y-112610903D01*
X70958131Y-112720854D01*
X70840889Y-112801022D01*
X70705810Y-112844912D01*
X70563838Y-112848967D01*
X70466521Y-112827797D01*
X70323874Y-112781448D01*
X70323867Y-112781446D01*
X70090592Y-112744500D01*
X69854408Y-112744500D01*
X69621132Y-112781446D01*
X69621126Y-112781448D01*
X69396520Y-112854427D01*
X69396503Y-112854434D01*
X69186071Y-112961654D01*
X69186059Y-112961662D01*
X68994991Y-113100481D01*
X68994984Y-113100487D01*
X68827987Y-113267484D01*
X68827981Y-113267491D01*
X68689162Y-113458559D01*
X68689154Y-113458571D01*
X68581934Y-113669003D01*
X68581927Y-113669020D01*
X68508948Y-113893626D01*
X68508946Y-113893632D01*
X68472000Y-114126907D01*
X68472000Y-114363092D01*
X68508946Y-114596367D01*
X68508948Y-114596373D01*
X68581927Y-114820979D01*
X68581930Y-114820987D01*
X68581931Y-114820990D01*
X68581934Y-114820996D01*
X68655762Y-114965893D01*
X68689157Y-115031433D01*
X68747340Y-115111515D01*
X68827391Y-115221695D01*
X68893671Y-115347312D01*
X68921877Y-115486513D01*
X68909723Y-115628022D01*
X68858193Y-115760375D01*
X68827391Y-115808305D01*
X68689156Y-115998568D01*
X68689154Y-115998571D01*
X68581934Y-116209003D01*
X68581927Y-116209020D01*
X68508948Y-116433626D01*
X68508946Y-116433632D01*
X68472000Y-116666907D01*
X68472000Y-116903092D01*
X68508946Y-117136367D01*
X68508948Y-117136373D01*
X68581927Y-117360979D01*
X68581934Y-117360996D01*
X68689154Y-117571428D01*
X68689162Y-117571440D01*
X68827981Y-117762508D01*
X68827987Y-117762515D01*
X68994984Y-117929512D01*
X68994991Y-117929518D01*
X69108304Y-118011845D01*
X69186067Y-118068343D01*
X69396508Y-118175568D01*
X69621132Y-118248553D01*
X69854408Y-118285500D01*
X70090592Y-118285500D01*
X70323868Y-118248553D01*
X70548492Y-118175568D01*
X70658748Y-118119389D01*
X70793182Y-118073577D01*
X70935082Y-118067494D01*
X71072947Y-118101635D01*
X71178266Y-118160068D01*
X71181299Y-118162267D01*
X71270169Y-118228796D01*
X71276042Y-118230986D01*
X71307538Y-118253831D01*
X71335829Y-118281281D01*
X71367393Y-118304908D01*
X71386542Y-118330486D01*
X71409472Y-118352735D01*
X71428886Y-118387049D01*
X71452512Y-118418607D01*
X71463677Y-118448539D01*
X71479413Y-118476351D01*
X71488373Y-118514744D01*
X71502151Y-118551680D01*
X71504431Y-118583550D01*
X71511693Y-118614665D01*
X71509474Y-118654024D01*
X71512288Y-118693348D01*
X71505497Y-118724569D01*
X71503699Y-118756470D01*
X71490480Y-118793610D01*
X71482102Y-118832133D01*
X71466789Y-118860177D01*
X71456077Y-118890278D01*
X71432932Y-118922187D01*
X71414038Y-118956793D01*
X71391443Y-118979388D01*
X71372686Y-119005250D01*
X71341487Y-119029347D01*
X71313611Y-119057226D01*
X71285569Y-119072539D01*
X71260282Y-119092071D01*
X71223555Y-119106404D01*
X71188956Y-119125298D01*
X71153308Y-119133818D01*
X71127970Y-119143707D01*
X71102810Y-119145888D01*
X71070429Y-119153628D01*
X70827994Y-119180944D01*
X70827986Y-119180945D01*
X70554191Y-119243437D01*
X70554179Y-119243441D01*
X70289097Y-119336197D01*
X70289095Y-119336197D01*
X70289092Y-119336199D01*
X70168043Y-119394492D01*
X70036052Y-119458056D01*
X69798244Y-119607482D01*
X69578685Y-119782574D01*
X69578673Y-119782585D01*
X69380085Y-119981173D01*
X69380074Y-119981185D01*
X69204982Y-120200744D01*
X69055556Y-120438552D01*
X68933697Y-120691597D01*
X68840941Y-120956679D01*
X68840937Y-120956691D01*
X68778445Y-121230486D01*
X68778443Y-121230496D01*
X68747000Y-121509567D01*
X68747000Y-121790432D01*
X68778443Y-122069503D01*
X68778445Y-122069513D01*
X68840937Y-122343308D01*
X68840939Y-122343314D01*
X68840940Y-122343318D01*
X68933699Y-122608408D01*
X68962795Y-122668826D01*
X69055556Y-122861447D01*
X69059307Y-122867416D01*
X69204977Y-123099248D01*
X69204979Y-123099251D01*
X69204982Y-123099255D01*
X69380074Y-123318814D01*
X69380085Y-123318826D01*
X69578673Y-123517414D01*
X69578685Y-123517425D01*
X69798244Y-123692517D01*
X69798252Y-123692523D01*
X70036055Y-123841945D01*
X70289092Y-123963801D01*
X70554182Y-124056560D01*
X70554191Y-124056562D01*
X70827986Y-124119054D01*
X70827996Y-124119056D01*
X71055647Y-124144705D01*
X71107075Y-124150500D01*
X71107076Y-124150500D01*
X71387924Y-124150500D01*
X71387925Y-124150500D01*
X71498095Y-124138086D01*
X71667003Y-124119056D01*
X71667006Y-124119055D01*
X71667009Y-124119055D01*
X71940818Y-124056560D01*
X72205908Y-123963801D01*
X72458945Y-123841945D01*
X72696748Y-123692523D01*
X72916325Y-123517416D01*
X73114916Y-123318825D01*
X73290023Y-123099248D01*
X73439445Y-122861445D01*
X73561301Y-122608408D01*
X73654060Y-122343318D01*
X73716555Y-122069509D01*
X73716636Y-122068797D01*
X73747999Y-121790432D01*
X73748000Y-121790424D01*
X73748000Y-121509575D01*
X73747999Y-121509567D01*
X117747000Y-121509567D01*
X117747000Y-121790432D01*
X117778443Y-122069503D01*
X117778445Y-122069513D01*
X117840937Y-122343308D01*
X117840939Y-122343314D01*
X117840940Y-122343318D01*
X117933699Y-122608408D01*
X117962795Y-122668826D01*
X118055556Y-122861447D01*
X118059307Y-122867416D01*
X118204977Y-123099248D01*
X118204979Y-123099251D01*
X118204982Y-123099255D01*
X118380074Y-123318814D01*
X118380085Y-123318826D01*
X118578673Y-123517414D01*
X118578685Y-123517425D01*
X118798244Y-123692517D01*
X118798252Y-123692523D01*
X119036055Y-123841945D01*
X119289092Y-123963801D01*
X119554182Y-124056560D01*
X119554191Y-124056562D01*
X119827986Y-124119054D01*
X119827996Y-124119056D01*
X120055647Y-124144705D01*
X120107075Y-124150500D01*
X120107076Y-124150500D01*
X120387924Y-124150500D01*
X120387925Y-124150500D01*
X120498095Y-124138086D01*
X120667003Y-124119056D01*
X120667006Y-124119055D01*
X120667009Y-124119055D01*
X120940818Y-124056560D01*
X121205908Y-123963801D01*
X121458945Y-123841945D01*
X121696748Y-123692523D01*
X121916325Y-123517416D01*
X122114916Y-123318825D01*
X122290023Y-123099248D01*
X122439445Y-122861445D01*
X122561301Y-122608408D01*
X122654060Y-122343318D01*
X122716555Y-122069509D01*
X122716636Y-122068797D01*
X122747999Y-121790432D01*
X122748000Y-121790424D01*
X122748000Y-121509575D01*
X122747999Y-121509567D01*
X122716556Y-121230496D01*
X122716553Y-121230481D01*
X122654065Y-120956703D01*
X122654064Y-120956699D01*
X122654060Y-120956682D01*
X122620078Y-120859567D01*
X130499500Y-120859567D01*
X130499500Y-121140432D01*
X130530943Y-121419503D01*
X130530945Y-121419513D01*
X130593437Y-121693308D01*
X130593439Y-121693314D01*
X130593440Y-121693318D01*
X130686199Y-121958408D01*
X130763580Y-122119091D01*
X130808056Y-122211447D01*
X130813775Y-122220548D01*
X130957477Y-122449248D01*
X130957479Y-122449251D01*
X130957482Y-122449255D01*
X131132574Y-122668814D01*
X131132585Y-122668826D01*
X131331173Y-122867414D01*
X131331185Y-122867425D01*
X131550744Y-123042517D01*
X131550752Y-123042523D01*
X131788555Y-123191945D01*
X132041592Y-123313801D01*
X132306682Y-123406560D01*
X132306691Y-123406562D01*
X132580486Y-123469054D01*
X132580496Y-123469056D01*
X132808147Y-123494705D01*
X132859575Y-123500500D01*
X132859576Y-123500500D01*
X133140424Y-123500500D01*
X133140425Y-123500500D01*
X133250595Y-123488086D01*
X133419503Y-123469056D01*
X133419506Y-123469055D01*
X133419509Y-123469055D01*
X133693318Y-123406560D01*
X133958408Y-123313801D01*
X134211445Y-123191945D01*
X134449248Y-123042523D01*
X134668825Y-122867416D01*
X134867416Y-122668825D01*
X135042523Y-122449248D01*
X135191945Y-122211445D01*
X135313801Y-121958408D01*
X135406560Y-121693318D01*
X135469055Y-121419509D01*
X135500500Y-121140425D01*
X135500500Y-120859575D01*
X135481573Y-120691592D01*
X135469056Y-120580496D01*
X135469054Y-120580486D01*
X135406562Y-120306691D01*
X135406560Y-120306682D01*
X135313801Y-120041592D01*
X135191945Y-119788555D01*
X135042523Y-119550752D01*
X135011543Y-119511904D01*
X134867425Y-119331185D01*
X134867414Y-119331173D01*
X134668826Y-119132585D01*
X134668814Y-119132574D01*
X134449255Y-118957482D01*
X134449251Y-118957479D01*
X134449248Y-118957477D01*
X134249765Y-118832133D01*
X134211447Y-118808056D01*
X134211445Y-118808055D01*
X133958408Y-118686199D01*
X133693318Y-118593440D01*
X133693314Y-118593439D01*
X133693308Y-118593437D01*
X133419513Y-118530945D01*
X133419503Y-118530943D01*
X133140432Y-118499500D01*
X133140425Y-118499500D01*
X132859575Y-118499500D01*
X132859567Y-118499500D01*
X132580496Y-118530943D01*
X132580486Y-118530945D01*
X132306691Y-118593437D01*
X132306679Y-118593441D01*
X132041597Y-118686197D01*
X132041595Y-118686197D01*
X132041592Y-118686199D01*
X131920543Y-118744492D01*
X131788552Y-118808056D01*
X131550744Y-118957482D01*
X131331185Y-119132574D01*
X131331173Y-119132585D01*
X131132585Y-119331173D01*
X131132574Y-119331185D01*
X130957482Y-119550744D01*
X130808056Y-119788552D01*
X130766311Y-119875237D01*
X130695277Y-120022743D01*
X130686197Y-120041597D01*
X130593441Y-120306679D01*
X130593437Y-120306691D01*
X130530945Y-120580486D01*
X130530943Y-120580496D01*
X130499500Y-120859567D01*
X122620078Y-120859567D01*
X122561301Y-120691592D01*
X122439445Y-120438555D01*
X122290023Y-120200752D01*
X122290017Y-120200744D01*
X122114925Y-119981185D01*
X122114914Y-119981173D01*
X121916326Y-119782585D01*
X121916314Y-119782574D01*
X121696755Y-119607482D01*
X121696751Y-119607479D01*
X121696748Y-119607477D01*
X121526496Y-119500500D01*
X121458947Y-119458056D01*
X121372177Y-119416270D01*
X121205908Y-119336199D01*
X120940818Y-119243440D01*
X120940814Y-119243439D01*
X120940808Y-119243437D01*
X120667013Y-119180945D01*
X120667003Y-119180943D01*
X120387932Y-119149500D01*
X120387925Y-119149500D01*
X120107075Y-119149500D01*
X120107067Y-119149500D01*
X119827996Y-119180943D01*
X119827986Y-119180945D01*
X119554191Y-119243437D01*
X119554179Y-119243441D01*
X119289097Y-119336197D01*
X119289095Y-119336197D01*
X119289092Y-119336199D01*
X119168043Y-119394492D01*
X119036052Y-119458056D01*
X118798244Y-119607482D01*
X118578685Y-119782574D01*
X118578673Y-119782585D01*
X118380085Y-119981173D01*
X118380074Y-119981185D01*
X118204982Y-120200744D01*
X118055556Y-120438552D01*
X117933697Y-120691597D01*
X117840941Y-120956679D01*
X117840937Y-120956691D01*
X117778445Y-121230486D01*
X117778443Y-121230496D01*
X117747000Y-121509567D01*
X73747999Y-121509567D01*
X73716556Y-121230496D01*
X73716554Y-121230486D01*
X73654062Y-120956691D01*
X73654060Y-120956682D01*
X73561301Y-120691592D01*
X73439445Y-120438555D01*
X73290023Y-120200752D01*
X73290017Y-120200744D01*
X73114925Y-119981185D01*
X73114914Y-119981173D01*
X72916326Y-119782585D01*
X72916314Y-119782574D01*
X72696755Y-119607482D01*
X72696751Y-119607479D01*
X72696748Y-119607477D01*
X72526496Y-119500500D01*
X72458947Y-119458056D01*
X72372177Y-119416270D01*
X72205908Y-119336199D01*
X71975275Y-119255497D01*
X71849256Y-119189986D01*
X71746798Y-119091625D01*
X71676201Y-118968382D01*
X71643186Y-118830242D01*
X71650427Y-118688397D01*
X71697336Y-118554337D01*
X71780115Y-118438923D01*
X71892056Y-118351506D01*
X72024091Y-118299168D01*
X72140079Y-118285499D01*
X73560372Y-118285499D01*
X73560376Y-118285499D01*
X73560379Y-118285498D01*
X73619983Y-118279091D01*
X73754831Y-118228796D01*
X73870046Y-118142546D01*
X73956296Y-118027331D01*
X74006591Y-117892483D01*
X74010890Y-117852494D01*
X168249500Y-117852494D01*
X168249500Y-118147506D01*
X168253195Y-118175572D01*
X168288005Y-118439981D01*
X168288008Y-118439999D01*
X168364361Y-118724952D01*
X168364361Y-118724953D01*
X168477255Y-118997504D01*
X168624762Y-119252994D01*
X168624767Y-119253001D01*
X168804353Y-119487041D01*
X169012958Y-119695646D01*
X169138799Y-119792208D01*
X169247006Y-119875238D01*
X169462235Y-119999500D01*
X169502495Y-120022744D01*
X169638770Y-120079191D01*
X169775048Y-120135639D01*
X170060007Y-120211993D01*
X170352494Y-120250500D01*
X170352495Y-120250500D01*
X170647505Y-120250500D01*
X170647506Y-120250500D01*
X170939993Y-120211993D01*
X171224952Y-120135639D01*
X171497507Y-120022743D01*
X171752994Y-119875238D01*
X171987042Y-119695646D01*
X172036034Y-119646654D01*
X172149735Y-119561538D01*
X172282810Y-119511904D01*
X172388880Y-119500500D01*
X174750500Y-119500500D01*
X174891085Y-119520713D01*
X175020280Y-119579714D01*
X175127619Y-119672724D01*
X175204406Y-119792208D01*
X175244421Y-119928485D01*
X175249500Y-119999500D01*
X175249500Y-120614733D01*
X175279450Y-120842228D01*
X175279453Y-120842244D01*
X175338843Y-121063892D01*
X175344095Y-121079363D01*
X175342073Y-121080049D01*
X175371640Y-121195886D01*
X175374500Y-121249229D01*
X175374500Y-121672874D01*
X175374501Y-121672880D01*
X175380908Y-121732480D01*
X175380909Y-121732484D01*
X175431201Y-121867324D01*
X175431204Y-121867331D01*
X175517454Y-121982546D01*
X175632669Y-122068796D01*
X175767517Y-122119091D01*
X175827127Y-122125500D01*
X176250766Y-122125499D01*
X176391349Y-122145712D01*
X176420590Y-122156027D01*
X176420633Y-122155904D01*
X176436106Y-122161156D01*
X176436112Y-122161157D01*
X176436113Y-122161158D01*
X176657762Y-122220548D01*
X176885266Y-122250500D01*
X176885267Y-122250500D01*
X177114733Y-122250500D01*
X177114734Y-122250500D01*
X177342238Y-122220548D01*
X177563887Y-122161158D01*
X177563889Y-122161156D01*
X177563893Y-122161156D01*
X177579367Y-122155904D01*
X177580053Y-122157925D01*
X177695890Y-122128359D01*
X177749234Y-122125499D01*
X178172876Y-122125499D01*
X178172879Y-122125498D01*
X178232483Y-122119091D01*
X178367331Y-122068796D01*
X178482546Y-121982546D01*
X178568796Y-121867331D01*
X178619091Y-121732483D01*
X178625500Y-121672873D01*
X178625499Y-121249231D01*
X178645712Y-121108649D01*
X178656031Y-121079397D01*
X178655907Y-121079355D01*
X178661152Y-121063901D01*
X178661158Y-121063887D01*
X178720548Y-120842238D01*
X178750500Y-120614734D01*
X178750500Y-118078218D01*
X178770713Y-117937633D01*
X178829714Y-117808438D01*
X178896649Y-117725377D01*
X179303145Y-117318881D01*
X187599500Y-117318881D01*
X187599500Y-117581118D01*
X187633729Y-117841114D01*
X187667666Y-117967767D01*
X187696017Y-118073577D01*
X187701603Y-118094421D01*
X187801955Y-118336694D01*
X187933071Y-118563795D01*
X187933081Y-118563810D01*
X188092717Y-118771851D01*
X188278148Y-118957282D01*
X188453227Y-119091625D01*
X188486197Y-119116924D01*
X188705330Y-119243440D01*
X188713305Y-119248044D01*
X188758052Y-119266578D01*
X188955581Y-119348398D01*
X189208884Y-119416270D01*
X189468880Y-119450500D01*
X189468881Y-119450500D01*
X189731119Y-119450500D01*
X189731120Y-119450500D01*
X189991116Y-119416270D01*
X190244419Y-119348398D01*
X190486697Y-119248043D01*
X190713803Y-119116924D01*
X190921851Y-118957282D01*
X191107282Y-118771851D01*
X191266924Y-118563803D01*
X191398043Y-118336697D01*
X191498398Y-118094419D01*
X191566270Y-117841116D01*
X191600500Y-117581120D01*
X191600500Y-117318880D01*
X191566270Y-117058884D01*
X191498398Y-116805581D01*
X191398043Y-116563303D01*
X191266924Y-116336197D01*
X191242489Y-116304353D01*
X191107282Y-116128148D01*
X190921851Y-115942717D01*
X190713810Y-115783081D01*
X190713806Y-115783078D01*
X190713803Y-115783076D01*
X190713799Y-115783073D01*
X190713795Y-115783071D01*
X190486694Y-115651955D01*
X190244421Y-115551603D01*
X190244422Y-115551603D01*
X190244419Y-115551602D01*
X190107818Y-115515000D01*
X189991114Y-115483729D01*
X189770538Y-115454689D01*
X189731120Y-115449500D01*
X189468880Y-115449500D01*
X189434651Y-115454006D01*
X189208885Y-115483729D01*
X189012137Y-115536448D01*
X188955581Y-115551602D01*
X188955579Y-115551602D01*
X188955578Y-115551603D01*
X188713305Y-115651955D01*
X188486204Y-115783071D01*
X188486189Y-115783081D01*
X188278148Y-115942717D01*
X188092717Y-116128148D01*
X187933081Y-116336189D01*
X187933071Y-116336204D01*
X187801955Y-116563305D01*
X187701603Y-116805578D01*
X187633729Y-117058885D01*
X187599500Y-117318881D01*
X179303145Y-117318881D01*
X188414383Y-108207642D01*
X188528080Y-108122530D01*
X188661155Y-108072896D01*
X188802823Y-108062763D01*
X188941608Y-108092954D01*
X188954576Y-108098056D01*
X188955576Y-108098396D01*
X188955581Y-108098398D01*
X189208884Y-108166270D01*
X189468880Y-108200500D01*
X189468881Y-108200500D01*
X189731119Y-108200500D01*
X189731120Y-108200500D01*
X189991116Y-108166270D01*
X190244419Y-108098398D01*
X190486697Y-107998043D01*
X190713803Y-107866924D01*
X190921851Y-107707282D01*
X191107282Y-107521851D01*
X191266924Y-107313803D01*
X191398043Y-107086697D01*
X191498398Y-106844419D01*
X191566270Y-106591116D01*
X191600500Y-106331120D01*
X191600500Y-106068880D01*
X191566270Y-105808884D01*
X191498398Y-105555581D01*
X191416578Y-105358052D01*
X191398044Y-105313305D01*
X191349666Y-105229512D01*
X191266924Y-105086197D01*
X191243356Y-105055483D01*
X191107282Y-104878148D01*
X190921851Y-104692717D01*
X190713807Y-104533079D01*
X190713795Y-104533071D01*
X190486694Y-104401955D01*
X190244421Y-104301603D01*
X190244422Y-104301603D01*
X190244419Y-104301602D01*
X190117767Y-104267666D01*
X189991114Y-104233729D01*
X189758403Y-104203092D01*
X189731120Y-104199500D01*
X189468880Y-104199500D01*
X189441597Y-104203092D01*
X189208885Y-104233729D01*
X189009108Y-104287259D01*
X188955581Y-104301602D01*
X188955579Y-104301602D01*
X188955578Y-104301603D01*
X188713305Y-104401955D01*
X188486204Y-104533071D01*
X188486191Y-104533079D01*
X188392585Y-104604907D01*
X188268747Y-104674454D01*
X188166874Y-104701881D01*
X187948630Y-104736447D01*
X187948626Y-104736448D01*
X187724020Y-104809427D01*
X187724002Y-104809434D01*
X187513575Y-104916651D01*
X187513568Y-104916655D01*
X187322490Y-105055483D01*
X187322488Y-105055484D01*
X176671382Y-115706589D01*
X176557681Y-115791705D01*
X176447700Y-115835737D01*
X176436114Y-115838841D01*
X176436107Y-115838844D01*
X176224110Y-115926656D01*
X176058122Y-116022490D01*
X176025388Y-116041389D01*
X175939903Y-116106983D01*
X175843333Y-116181085D01*
X175671075Y-116353345D01*
X175557374Y-116438461D01*
X175424299Y-116488096D01*
X175318228Y-116499500D01*
X172388880Y-116499500D01*
X172248295Y-116479287D01*
X172119100Y-116420286D01*
X172036034Y-116353346D01*
X171987041Y-116304353D01*
X171753001Y-116124767D01*
X171752994Y-116124762D01*
X171497504Y-115977255D01*
X171224953Y-115864361D01*
X170939999Y-115788008D01*
X170939981Y-115788005D01*
X170717285Y-115758686D01*
X170647506Y-115749500D01*
X170352494Y-115749500D01*
X170296155Y-115756917D01*
X170060018Y-115788005D01*
X170060000Y-115788008D01*
X169775047Y-115864361D01*
X169775046Y-115864361D01*
X169502495Y-115977255D01*
X169247005Y-116124762D01*
X169246998Y-116124767D01*
X169012958Y-116304353D01*
X168804353Y-116512958D01*
X168624767Y-116746998D01*
X168624762Y-116747005D01*
X168477255Y-117002495D01*
X168364361Y-117275046D01*
X168364361Y-117275047D01*
X168288008Y-117560000D01*
X168288005Y-117560018D01*
X168285227Y-117581120D01*
X168249500Y-117852494D01*
X74010890Y-117852494D01*
X74013000Y-117832873D01*
X74012999Y-115737128D01*
X74006591Y-115677517D01*
X73956296Y-115542669D01*
X73892031Y-115456823D01*
X73823967Y-115332173D01*
X73793775Y-115193388D01*
X73803906Y-115051720D01*
X73846889Y-114931249D01*
X73903068Y-114820992D01*
X73976053Y-114596368D01*
X74013000Y-114363092D01*
X74013000Y-114126908D01*
X73976053Y-113893632D01*
X73903068Y-113669008D01*
X73795843Y-113458567D01*
X73657606Y-113268301D01*
X73591328Y-113142690D01*
X73563122Y-113003489D01*
X73575276Y-112861979D01*
X73626805Y-112729626D01*
X73657602Y-112681704D01*
X73795843Y-112491433D01*
X73903068Y-112280992D01*
X73976053Y-112056368D01*
X74013000Y-111823092D01*
X74013000Y-111586908D01*
X73981209Y-111386189D01*
X73976053Y-111353632D01*
X73976051Y-111353626D01*
X73903072Y-111129020D01*
X73903071Y-111129018D01*
X73903068Y-111129008D01*
X73795843Y-110918567D01*
X73657606Y-110728301D01*
X73591328Y-110602690D01*
X73563122Y-110463489D01*
X73575276Y-110321979D01*
X73626805Y-110189626D01*
X73657602Y-110141704D01*
X73795843Y-109951433D01*
X73903068Y-109740992D01*
X73976053Y-109516368D01*
X74013000Y-109283092D01*
X74013000Y-109046908D01*
X73976053Y-108813632D01*
X73903068Y-108589008D01*
X73795843Y-108378567D01*
X73671661Y-108207646D01*
X73657018Y-108187491D01*
X73657012Y-108187484D01*
X73490015Y-108020487D01*
X73490008Y-108020481D01*
X73298940Y-107881662D01*
X73298938Y-107881661D01*
X73298933Y-107881657D01*
X73298930Y-107881655D01*
X73298928Y-107881654D01*
X73088496Y-107774434D01*
X73088495Y-107774433D01*
X73088492Y-107774432D01*
X73088487Y-107774430D01*
X73088479Y-107774427D01*
X72863873Y-107701448D01*
X72863867Y-107701446D01*
X72630592Y-107664500D01*
X72394408Y-107664500D01*
X72161132Y-107701446D01*
X72018477Y-107747798D01*
X71878527Y-107772017D01*
X71737423Y-107755826D01*
X71606595Y-107700537D01*
X71496644Y-107610630D01*
X71416477Y-107493388D01*
X71372587Y-107358309D01*
X71368532Y-107216337D01*
X71377938Y-107161534D01*
X71382877Y-107140025D01*
X71436053Y-106976368D01*
X71453077Y-106868881D01*
X139499500Y-106868881D01*
X139499500Y-107131118D01*
X139533729Y-107391114D01*
X139567666Y-107517767D01*
X139601602Y-107644419D01*
X139601603Y-107644421D01*
X139701955Y-107886694D01*
X139833071Y-108113795D01*
X139833081Y-108113810D01*
X139992717Y-108321851D01*
X140178148Y-108507282D01*
X140386189Y-108666918D01*
X140386197Y-108666924D01*
X140613303Y-108798043D01*
X140855581Y-108898398D01*
X141108884Y-108966270D01*
X141368880Y-109000500D01*
X141368881Y-109000500D01*
X141631119Y-109000500D01*
X141631120Y-109000500D01*
X141891116Y-108966270D01*
X142144419Y-108898398D01*
X142386697Y-108798043D01*
X142613803Y-108666924D01*
X142821851Y-108507282D01*
X143007282Y-108321851D01*
X143166924Y-108113803D01*
X143298043Y-107886697D01*
X143305423Y-107868880D01*
X148999500Y-107868880D01*
X148999500Y-108131120D01*
X149004128Y-108166270D01*
X149033729Y-108391114D01*
X149045787Y-108436113D01*
X149086753Y-108589003D01*
X149101603Y-108644421D01*
X149201955Y-108886694D01*
X149333071Y-109113795D01*
X149333081Y-109113810D01*
X149492717Y-109321851D01*
X149678148Y-109507282D01*
X149751921Y-109563890D01*
X149886197Y-109666924D01*
X150113303Y-109798043D01*
X150355581Y-109898398D01*
X150608884Y-109966270D01*
X150868880Y-110000500D01*
X150868881Y-110000500D01*
X151131119Y-110000500D01*
X151131120Y-110000500D01*
X151391116Y-109966270D01*
X151644419Y-109898398D01*
X151886697Y-109798043D01*
X152113803Y-109666924D01*
X152321851Y-109507282D01*
X152507282Y-109321851D01*
X152666924Y-109113803D01*
X152798043Y-108886697D01*
X152863120Y-108729585D01*
X152904650Y-108629326D01*
X152906990Y-108630295D01*
X152959856Y-108526212D01*
X153015218Y-108460361D01*
X154606698Y-106868881D01*
X172499500Y-106868881D01*
X172499500Y-107131118D01*
X172533729Y-107391114D01*
X172567666Y-107517767D01*
X172601602Y-107644419D01*
X172601603Y-107644421D01*
X172701955Y-107886694D01*
X172833071Y-108113795D01*
X172833081Y-108113810D01*
X172992717Y-108321851D01*
X173178148Y-108507282D01*
X173386189Y-108666918D01*
X173386197Y-108666924D01*
X173613303Y-108798043D01*
X173855581Y-108898398D01*
X174108884Y-108966270D01*
X174368880Y-109000500D01*
X174368881Y-109000500D01*
X174631119Y-109000500D01*
X174631120Y-109000500D01*
X174891116Y-108966270D01*
X175144419Y-108898398D01*
X175386697Y-108798043D01*
X175613803Y-108666924D01*
X175821851Y-108507282D01*
X176007282Y-108321851D01*
X176166924Y-108113803D01*
X176298043Y-107886697D01*
X176398398Y-107644419D01*
X176466270Y-107391116D01*
X176500500Y-107131120D01*
X176500500Y-106868880D01*
X176466270Y-106608884D01*
X176398398Y-106355581D01*
X176298043Y-106113303D01*
X176166924Y-105886197D01*
X176166918Y-105886189D01*
X176007282Y-105678148D01*
X175821851Y-105492717D01*
X175613810Y-105333081D01*
X175613806Y-105333078D01*
X175613803Y-105333076D01*
X175613799Y-105333073D01*
X175613795Y-105333071D01*
X175386694Y-105201955D01*
X175144421Y-105101603D01*
X175144422Y-105101603D01*
X175144419Y-105101602D01*
X175017767Y-105067666D01*
X174891114Y-105033729D01*
X174670538Y-105004689D01*
X174631120Y-104999500D01*
X174368880Y-104999500D01*
X174334651Y-105004006D01*
X174108885Y-105033729D01*
X173913047Y-105086204D01*
X173855581Y-105101602D01*
X173855579Y-105101602D01*
X173855578Y-105101603D01*
X173613305Y-105201955D01*
X173386204Y-105333071D01*
X173386189Y-105333081D01*
X173178148Y-105492717D01*
X172992717Y-105678148D01*
X172833081Y-105886189D01*
X172833071Y-105886204D01*
X172701955Y-106113305D01*
X172601603Y-106355578D01*
X172533729Y-106608885D01*
X172499500Y-106868881D01*
X154606698Y-106868881D01*
X159578927Y-101896654D01*
X159692628Y-101811538D01*
X159825703Y-101761904D01*
X159931773Y-101750500D01*
X192250500Y-101750500D01*
X192391085Y-101770713D01*
X192520280Y-101829714D01*
X192627619Y-101922724D01*
X192704406Y-102042208D01*
X192744421Y-102178485D01*
X192749500Y-102249500D01*
X192749500Y-126114733D01*
X192779450Y-126342228D01*
X192779453Y-126342244D01*
X192838842Y-126563887D01*
X192838843Y-126563890D01*
X192926656Y-126775889D01*
X193041391Y-126974615D01*
X193111234Y-127065635D01*
X193111233Y-127065635D01*
X193111238Y-127065640D01*
X193171338Y-127143965D01*
X193240884Y-127267803D01*
X193272723Y-127406219D01*
X193264276Y-127547998D01*
X193216228Y-127681654D01*
X193132471Y-127796359D01*
X193019790Y-127882821D01*
X192887314Y-127934034D01*
X192745777Y-127945851D01*
X192606643Y-127917313D01*
X192481185Y-127850732D01*
X192422607Y-127800580D01*
X192177511Y-127555484D01*
X192177510Y-127555483D01*
X191986434Y-127416657D01*
X191986433Y-127416656D01*
X191986431Y-127416655D01*
X191986424Y-127416651D01*
X191775997Y-127309434D01*
X191775979Y-127309427D01*
X191551373Y-127236448D01*
X191551367Y-127236446D01*
X191318092Y-127199500D01*
X191100078Y-127199500D01*
X190959493Y-127179287D01*
X190830298Y-127120286D01*
X190796305Y-127096382D01*
X190713810Y-127033081D01*
X190713806Y-127033078D01*
X190713803Y-127033076D01*
X190713799Y-127033073D01*
X190713795Y-127033071D01*
X190486694Y-126901955D01*
X190244421Y-126801603D01*
X190244422Y-126801603D01*
X190244419Y-126801602D01*
X190117767Y-126767666D01*
X189991114Y-126733729D01*
X189770538Y-126704689D01*
X189731120Y-126699500D01*
X189468880Y-126699500D01*
X189434651Y-126704006D01*
X189208885Y-126733729D01*
X189009108Y-126787259D01*
X188955581Y-126801602D01*
X188955579Y-126801602D01*
X188955578Y-126801603D01*
X188713305Y-126901955D01*
X188486204Y-127033071D01*
X188486189Y-127033081D01*
X188278148Y-127192717D01*
X188092717Y-127378148D01*
X187933081Y-127586189D01*
X187933071Y-127586204D01*
X187801955Y-127813305D01*
X187701603Y-128055578D01*
X187633729Y-128308885D01*
X187599500Y-128568881D01*
X187599500Y-128831118D01*
X187633729Y-129091114D01*
X187701603Y-129344421D01*
X187801955Y-129586694D01*
X187933071Y-129813795D01*
X187933081Y-129813810D01*
X188092717Y-130021851D01*
X188278148Y-130207282D01*
X188443437Y-130334113D01*
X188486197Y-130366924D01*
X188713303Y-130498043D01*
X188955581Y-130598398D01*
X189208884Y-130666270D01*
X189468880Y-130700500D01*
X189468881Y-130700500D01*
X189731119Y-130700500D01*
X189731120Y-130700500D01*
X189991116Y-130666270D01*
X190244419Y-130598398D01*
X190453947Y-130511608D01*
X190591563Y-130476483D01*
X190733503Y-130481552D01*
X190868265Y-130526405D01*
X190984931Y-130607408D01*
X190997751Y-130619778D01*
X193052346Y-132674373D01*
X193137462Y-132788074D01*
X193187096Y-132921149D01*
X193198500Y-133027219D01*
X193198500Y-136111120D01*
X193178287Y-136251705D01*
X193119286Y-136380900D01*
X193096406Y-136413554D01*
X193076071Y-136440240D01*
X193003354Y-136512958D01*
X192823762Y-136747006D01*
X192765720Y-136847537D01*
X192746406Y-136872885D01*
X192718255Y-136900559D01*
X192693848Y-136931596D01*
X192667865Y-136950097D01*
X192645123Y-136972456D01*
X192610313Y-136991079D01*
X192578153Y-137013981D01*
X192548010Y-137024413D01*
X192519891Y-137039458D01*
X192481247Y-137047520D01*
X192443935Y-137060434D01*
X192412074Y-137061951D01*
X192380854Y-137068465D01*
X192341499Y-137065312D01*
X192302065Y-137067191D01*
X192271069Y-137059671D01*
X192239277Y-137057125D01*
X192202407Y-137043014D01*
X192164039Y-137033706D01*
X192136416Y-137017757D01*
X192106630Y-137006358D01*
X192075227Y-136982430D01*
X192041037Y-136962690D01*
X192019028Y-136939607D01*
X191993659Y-136920277D01*
X191970269Y-136888470D01*
X191943026Y-136859898D01*
X191917354Y-136819953D01*
X191910325Y-136807779D01*
X191875238Y-136747006D01*
X191695646Y-136512958D01*
X191487042Y-136304354D01*
X191487041Y-136304353D01*
X191253001Y-136124767D01*
X191252994Y-136124762D01*
X190997504Y-135977255D01*
X190724953Y-135864361D01*
X190439999Y-135788008D01*
X190439981Y-135788005D01*
X190217285Y-135758686D01*
X190147506Y-135749500D01*
X189852494Y-135749500D01*
X189803813Y-135755909D01*
X189560018Y-135788005D01*
X189560000Y-135788008D01*
X189275047Y-135864361D01*
X189275046Y-135864361D01*
X189002495Y-135977255D01*
X188747005Y-136124762D01*
X188746998Y-136124767D01*
X188512958Y-136304353D01*
X188304353Y-136512958D01*
X188124767Y-136746998D01*
X188124762Y-136747005D01*
X187977255Y-137002495D01*
X187864361Y-137275046D01*
X187864361Y-137275047D01*
X187788008Y-137560000D01*
X187788005Y-137560018D01*
X187749500Y-137852494D01*
X187749500Y-138147505D01*
X187788005Y-138439981D01*
X187788008Y-138439999D01*
X187864361Y-138724952D01*
X187864361Y-138724953D01*
X187977255Y-138997504D01*
X188124762Y-139252994D01*
X188124767Y-139253001D01*
X188304353Y-139487041D01*
X188512958Y-139695646D01*
X188723868Y-139857484D01*
X188747006Y-139875238D01*
X189002493Y-140022743D01*
X189275048Y-140135639D01*
X189560007Y-140211993D01*
X189852494Y-140250500D01*
X189852495Y-140250500D01*
X190147505Y-140250500D01*
X190147506Y-140250500D01*
X190439993Y-140211993D01*
X190724952Y-140135639D01*
X190997507Y-140022743D01*
X191252994Y-139875238D01*
X191487042Y-139695646D01*
X191695646Y-139487042D01*
X191875238Y-139252994D01*
X191917353Y-139180049D01*
X192005150Y-139068405D01*
X192120844Y-138986019D01*
X192255063Y-138939566D01*
X192396932Y-138932807D01*
X192534959Y-138966292D01*
X192657961Y-139037307D01*
X192755973Y-139140099D01*
X192781647Y-139180049D01*
X192823758Y-139252988D01*
X192823767Y-139253001D01*
X193003353Y-139487041D01*
X193211958Y-139695646D01*
X193422868Y-139857484D01*
X193446006Y-139875238D01*
X193701493Y-140022743D01*
X193974048Y-140135639D01*
X194259007Y-140211993D01*
X194551494Y-140250500D01*
X194551495Y-140250500D01*
X194846505Y-140250500D01*
X194846506Y-140250500D01*
X195138993Y-140211993D01*
X195423952Y-140135639D01*
X195696507Y-140022743D01*
X195951994Y-139875238D01*
X196186042Y-139695646D01*
X196306750Y-139574937D01*
X196420444Y-139489827D01*
X196553519Y-139440192D01*
X196695187Y-139430059D01*
X196833972Y-139460249D01*
X196958629Y-139528317D01*
X197059060Y-139628747D01*
X197127128Y-139753404D01*
X197144661Y-139827594D01*
X197146731Y-139827106D01*
X197153909Y-139857484D01*
X197160531Y-139875238D01*
X197204204Y-139992331D01*
X197290454Y-140107546D01*
X197405669Y-140193796D01*
X197540517Y-140244091D01*
X197600127Y-140250500D01*
X201195872Y-140250499D01*
X201195875Y-140250499D01*
X201195878Y-140250498D01*
X201255483Y-140244091D01*
X201390331Y-140193796D01*
X201505546Y-140107546D01*
X201591796Y-139992331D01*
X201642091Y-139857483D01*
X201648500Y-139797873D01*
X201648499Y-136202128D01*
X201642091Y-136142517D01*
X201591796Y-136007669D01*
X201505546Y-135892454D01*
X201390331Y-135806204D01*
X201390330Y-135806203D01*
X201361759Y-135784815D01*
X201363510Y-135782475D01*
X201294652Y-135730928D01*
X201209537Y-135617227D01*
X201159903Y-135484151D01*
X201148500Y-135378084D01*
X201148500Y-130783266D01*
X201121272Y-130576453D01*
X201118548Y-130555762D01*
X201103082Y-130498043D01*
X201059158Y-130334113D01*
X200971344Y-130122112D01*
X200913458Y-130021851D01*
X200856611Y-129923388D01*
X200772523Y-129813803D01*
X200716920Y-129741339D01*
X200716917Y-129741336D01*
X200716914Y-129741332D01*
X196396654Y-125421072D01*
X196311538Y-125307371D01*
X196261904Y-125174296D01*
X196250500Y-125068226D01*
X196250500Y-99885266D01*
X196220549Y-99657771D01*
X196220548Y-99657762D01*
X196161158Y-99436113D01*
X196073344Y-99224112D01*
X195958611Y-99025388D01*
X195818919Y-98843339D01*
X195818917Y-98843337D01*
X195818914Y-98843333D01*
X195656666Y-98681085D01*
X195656652Y-98681074D01*
X195474612Y-98541389D01*
X195353330Y-98471367D01*
X195275889Y-98426656D01*
X195063890Y-98338843D01*
X195063887Y-98338842D01*
X194842244Y-98279453D01*
X194842228Y-98279450D01*
X194651477Y-98254337D01*
X194614734Y-98249500D01*
X158885266Y-98249500D01*
X158797781Y-98261017D01*
X158684233Y-98275966D01*
X158684228Y-98275967D01*
X158657761Y-98279452D01*
X158657758Y-98279452D01*
X158657756Y-98279453D01*
X158436112Y-98338842D01*
X158436109Y-98338843D01*
X158224110Y-98426656D01*
X158025391Y-98541386D01*
X158025393Y-98541386D01*
X158025388Y-98541389D01*
X158025387Y-98541390D01*
X158025386Y-98541391D01*
X157843345Y-98681074D01*
X157843333Y-98681085D01*
X150539640Y-105984777D01*
X150425939Y-106069893D01*
X150370250Y-106094333D01*
X150370672Y-106095351D01*
X150113305Y-106201955D01*
X149886204Y-106333071D01*
X149886189Y-106333081D01*
X149678148Y-106492717D01*
X149492717Y-106678148D01*
X149333081Y-106886189D01*
X149333071Y-106886204D01*
X149201955Y-107113305D01*
X149108535Y-107338843D01*
X149101602Y-107355581D01*
X149087259Y-107409108D01*
X149033729Y-107608885D01*
X149011934Y-107774434D01*
X148999500Y-107868880D01*
X143305423Y-107868880D01*
X143398398Y-107644419D01*
X143466270Y-107391116D01*
X143500500Y-107131120D01*
X143500500Y-106868880D01*
X143466270Y-106608884D01*
X143398398Y-106355581D01*
X143298043Y-106113303D01*
X143166924Y-105886197D01*
X143166918Y-105886189D01*
X143007282Y-105678148D01*
X142821851Y-105492717D01*
X142613810Y-105333081D01*
X142613806Y-105333078D01*
X142613803Y-105333076D01*
X142613799Y-105333073D01*
X142613795Y-105333071D01*
X142386694Y-105201955D01*
X142144421Y-105101603D01*
X142144422Y-105101603D01*
X142144419Y-105101602D01*
X142017767Y-105067666D01*
X141891114Y-105033729D01*
X141670538Y-105004689D01*
X141631120Y-104999500D01*
X141368880Y-104999500D01*
X141334651Y-105004006D01*
X141108885Y-105033729D01*
X140913047Y-105086204D01*
X140855581Y-105101602D01*
X140855579Y-105101602D01*
X140855578Y-105101603D01*
X140613305Y-105201955D01*
X140386204Y-105333071D01*
X140386189Y-105333081D01*
X140178148Y-105492717D01*
X139992717Y-105678148D01*
X139833081Y-105886189D01*
X139833071Y-105886204D01*
X139701955Y-106113305D01*
X139601603Y-106355578D01*
X139533729Y-106608885D01*
X139499500Y-106868881D01*
X71453077Y-106868881D01*
X71470711Y-106757547D01*
X71473000Y-106743097D01*
X71473000Y-106506907D01*
X71436053Y-106273633D01*
X71412764Y-106201957D01*
X71389701Y-106130977D01*
X71365483Y-105991030D01*
X71381672Y-105849925D01*
X71436960Y-105719098D01*
X71526867Y-105609146D01*
X71644109Y-105528978D01*
X71779187Y-105485088D01*
X71921159Y-105481031D01*
X72018476Y-105502201D01*
X72161132Y-105548553D01*
X72394408Y-105585500D01*
X72630592Y-105585500D01*
X72863868Y-105548553D01*
X73088492Y-105475568D01*
X73298933Y-105368343D01*
X73490010Y-105229517D01*
X73657017Y-105062510D01*
X73795843Y-104871433D01*
X73903068Y-104660992D01*
X73976053Y-104436368D01*
X74013000Y-104203092D01*
X74013000Y-103966908D01*
X73976053Y-103733632D01*
X73903068Y-103509008D01*
X73795843Y-103298567D01*
X73657606Y-103108301D01*
X73591328Y-102982690D01*
X73563122Y-102843489D01*
X73575276Y-102701979D01*
X73626805Y-102569626D01*
X73657602Y-102521704D01*
X73795843Y-102331433D01*
X73903068Y-102120992D01*
X73976053Y-101896368D01*
X74013000Y-101663092D01*
X74013000Y-101426908D01*
X73976053Y-101193632D01*
X73903068Y-100969008D01*
X73795843Y-100758567D01*
X73657606Y-100568301D01*
X73591328Y-100442690D01*
X73563122Y-100303489D01*
X73575276Y-100161979D01*
X73626805Y-100029626D01*
X73657602Y-99981704D01*
X73795843Y-99791433D01*
X73903068Y-99580992D01*
X73976053Y-99356368D01*
X74013000Y-99123092D01*
X74013000Y-98886908D01*
X74006099Y-98843339D01*
X73976053Y-98653632D01*
X73976051Y-98653626D01*
X73903072Y-98429020D01*
X73903071Y-98429018D01*
X73903068Y-98429008D01*
X73795843Y-98218567D01*
X73657606Y-98028301D01*
X73591328Y-97902690D01*
X73563122Y-97763489D01*
X73575276Y-97621979D01*
X73626805Y-97489626D01*
X73657602Y-97441704D01*
X73795843Y-97251433D01*
X73903068Y-97040992D01*
X73976053Y-96816368D01*
X74013000Y-96583092D01*
X74013000Y-96346908D01*
X73976053Y-96113632D01*
X73903068Y-95889008D01*
X73795843Y-95678567D01*
X73657017Y-95487490D01*
X73645493Y-95471628D01*
X73648469Y-95469465D01*
X73592095Y-95380344D01*
X73553060Y-95243783D01*
X73554080Y-95101756D01*
X73595072Y-94965770D01*
X73668038Y-94852239D01*
X73680736Y-94837371D01*
X73680742Y-94837365D01*
X73810315Y-94659022D01*
X73910395Y-94462606D01*
X73978515Y-94252951D01*
X74013000Y-94035222D01*
X74013000Y-93814778D01*
X73978515Y-93597049D01*
X73910395Y-93387394D01*
X73910394Y-93387393D01*
X73910394Y-93387391D01*
X73810317Y-93190982D01*
X73810315Y-93190978D01*
X73680742Y-93012635D01*
X73680732Y-93012625D01*
X73668032Y-92997754D01*
X73592101Y-92877725D01*
X73553062Y-92741165D01*
X73554077Y-92599138D01*
X73595065Y-92463151D01*
X73648266Y-92380387D01*
X73645493Y-92378372D01*
X73713170Y-92285222D01*
X73795843Y-92171433D01*
X73903068Y-91960992D01*
X73976053Y-91736368D01*
X74013000Y-91503092D01*
X74013000Y-91266908D01*
X73976053Y-91033632D01*
X73929312Y-90889778D01*
X189364500Y-90889778D01*
X189364500Y-91110222D01*
X189381091Y-91214975D01*
X189398984Y-91327949D01*
X189467105Y-91537608D01*
X189521579Y-91644517D01*
X189567185Y-91734022D01*
X189696758Y-91912365D01*
X189696761Y-91912368D01*
X189696764Y-91912372D01*
X189852627Y-92068235D01*
X189852630Y-92068237D01*
X189852635Y-92068242D01*
X190030978Y-92197815D01*
X190030982Y-92197817D01*
X190227391Y-92297894D01*
X190227393Y-92297894D01*
X190227394Y-92297895D01*
X190437049Y-92366015D01*
X190654778Y-92400500D01*
X190654782Y-92400500D01*
X190875218Y-92400500D01*
X190875222Y-92400500D01*
X191092951Y-92366015D01*
X191302606Y-92297895D01*
X191499022Y-92197815D01*
X191519398Y-92183011D01*
X191529325Y-92175799D01*
X191654942Y-92109519D01*
X191794143Y-92081314D01*
X191822628Y-92080500D01*
X196002394Y-92080500D01*
X196142979Y-92100713D01*
X196272174Y-92159714D01*
X196295687Y-92175792D01*
X196318390Y-92192287D01*
X196318398Y-92192291D01*
X196318403Y-92192294D01*
X196500774Y-92285217D01*
X196500786Y-92285222D01*
X196695455Y-92348474D01*
X196695459Y-92348474D01*
X196695466Y-92348477D01*
X196897648Y-92380500D01*
X196897649Y-92380500D01*
X197102351Y-92380500D01*
X197102352Y-92380500D01*
X197304534Y-92348477D01*
X197304542Y-92348474D01*
X197304544Y-92348474D01*
X197499213Y-92285222D01*
X197499213Y-92285221D01*
X197499219Y-92285220D01*
X197681610Y-92192287D01*
X197847219Y-92071966D01*
X197847224Y-92071961D01*
X197847226Y-92071960D01*
X197991960Y-91927226D01*
X197991961Y-91927224D01*
X197991966Y-91927219D01*
X198112287Y-91761610D01*
X198205220Y-91579219D01*
X198268477Y-91384534D01*
X198300500Y-91182352D01*
X198300500Y-90977648D01*
X198268477Y-90775466D01*
X198268474Y-90775459D01*
X198268474Y-90775455D01*
X198205222Y-90580786D01*
X198205217Y-90580774D01*
X198112294Y-90398403D01*
X198112291Y-90398399D01*
X198112287Y-90398390D01*
X197991966Y-90232781D01*
X197991963Y-90232778D01*
X197991961Y-90232775D01*
X197847224Y-90088038D01*
X197847220Y-90088035D01*
X197847219Y-90088034D01*
X197681610Y-89967713D01*
X197681604Y-89967710D01*
X197681596Y-89967705D01*
X197499225Y-89874782D01*
X197499213Y-89874777D01*
X197304544Y-89811525D01*
X197304529Y-89811522D01*
X197189735Y-89793340D01*
X197102352Y-89779500D01*
X196897648Y-89779500D01*
X196836635Y-89789163D01*
X196695470Y-89811522D01*
X196695455Y-89811525D01*
X196500786Y-89874777D01*
X196500774Y-89874782D01*
X196318403Y-89967705D01*
X196318388Y-89967714D01*
X196307847Y-89975373D01*
X196295695Y-89984201D01*
X196170082Y-90050481D01*
X196030880Y-90078686D01*
X196002394Y-90079500D01*
X192031800Y-90079500D01*
X191891215Y-90059287D01*
X191762020Y-90000286D01*
X191692489Y-89944253D01*
X191692281Y-89944497D01*
X191683746Y-89937207D01*
X191678954Y-89933346D01*
X191677372Y-89931764D01*
X191677373Y-89931764D01*
X191677365Y-89931758D01*
X191499022Y-89802185D01*
X191499019Y-89802183D01*
X191499017Y-89802182D01*
X191302608Y-89702105D01*
X191092949Y-89633984D01*
X190962793Y-89613370D01*
X190875222Y-89599500D01*
X190654778Y-89599500D01*
X190567219Y-89613368D01*
X190437050Y-89633984D01*
X190227391Y-89702105D01*
X190030982Y-89802182D01*
X189852627Y-89931764D01*
X189696764Y-90087627D01*
X189567182Y-90265982D01*
X189467105Y-90462391D01*
X189398984Y-90672050D01*
X189377294Y-90809003D01*
X189364500Y-90889778D01*
X73929312Y-90889778D01*
X73903068Y-90809008D01*
X73795843Y-90598567D01*
X73657017Y-90407490D01*
X73643534Y-90394007D01*
X73617061Y-90342257D01*
X73606514Y-90311472D01*
X73591328Y-90282690D01*
X73583615Y-90244628D01*
X73571031Y-90207893D01*
X73569584Y-90175384D01*
X73563122Y-90143489D01*
X73566444Y-90104800D01*
X73564719Y-90066003D01*
X73572491Y-90034400D01*
X73575276Y-90001979D01*
X73589365Y-89965790D01*
X73598639Y-89928083D01*
X73614997Y-89899954D01*
X73626805Y-89869626D01*
X73657602Y-89821704D01*
X73795843Y-89631433D01*
X73903068Y-89420992D01*
X73976053Y-89196368D01*
X74013000Y-88963092D01*
X74013000Y-88726908D01*
X73976053Y-88493632D01*
X73944895Y-88397738D01*
X73903072Y-88269020D01*
X73903071Y-88269018D01*
X73903068Y-88269008D01*
X73795843Y-88058567D01*
X73657017Y-87867490D01*
X73657012Y-87867484D01*
X73490015Y-87700487D01*
X73490008Y-87700481D01*
X73298940Y-87561662D01*
X73298938Y-87561661D01*
X73298933Y-87561657D01*
X73298930Y-87561655D01*
X73298928Y-87561654D01*
X73088496Y-87454434D01*
X73088495Y-87454433D01*
X73088492Y-87454432D01*
X73088487Y-87454430D01*
X73088479Y-87454427D01*
X72863873Y-87381448D01*
X72863867Y-87381446D01*
X72630592Y-87344500D01*
X72394408Y-87344500D01*
X72161132Y-87381446D01*
X72018477Y-87427798D01*
X71878527Y-87452017D01*
X71737423Y-87435826D01*
X71606595Y-87380537D01*
X71496644Y-87290630D01*
X71416477Y-87173388D01*
X71372587Y-87038309D01*
X71368532Y-86896337D01*
X71389699Y-86799027D01*
X71436053Y-86656368D01*
X71473000Y-86423092D01*
X71473000Y-86186908D01*
X71436053Y-85953632D01*
X71389701Y-85810977D01*
X71365483Y-85671030D01*
X71381672Y-85529925D01*
X71436960Y-85399098D01*
X71526867Y-85289146D01*
X71644109Y-85208978D01*
X71779187Y-85165088D01*
X71921159Y-85161031D01*
X72018476Y-85182201D01*
X72161132Y-85228553D01*
X72394408Y-85265500D01*
X72630592Y-85265500D01*
X72863868Y-85228553D01*
X73088492Y-85155568D01*
X73298933Y-85048343D01*
X73490010Y-84909517D01*
X73657017Y-84742510D01*
X73795843Y-84551433D01*
X73903068Y-84340992D01*
X73976053Y-84116368D01*
X74013000Y-83883092D01*
X74013000Y-83646908D01*
X74012621Y-83644518D01*
X73976053Y-83413632D01*
X73976051Y-83413626D01*
X73903072Y-83189020D01*
X73903071Y-83189018D01*
X73903068Y-83189008D01*
X73795843Y-82978567D01*
X73657606Y-82788301D01*
X73591328Y-82662690D01*
X73563122Y-82523489D01*
X73575276Y-82381979D01*
X73626805Y-82249626D01*
X73657602Y-82201704D01*
X73795843Y-82011433D01*
X73903068Y-81800992D01*
X73976053Y-81576368D01*
X74013000Y-81343092D01*
X74013000Y-81106908D01*
X73976053Y-80873632D01*
X73903068Y-80649008D01*
X73795843Y-80438567D01*
X73657606Y-80248301D01*
X73591328Y-80122690D01*
X73563122Y-79983489D01*
X73575276Y-79841979D01*
X73626805Y-79709626D01*
X73657602Y-79661704D01*
X73795843Y-79471433D01*
X73903068Y-79260992D01*
X73976053Y-79036368D01*
X74013000Y-78803092D01*
X74013000Y-78566908D01*
X74010105Y-78548632D01*
X73976053Y-78333632D01*
X73976051Y-78333626D01*
X73903072Y-78109020D01*
X73903071Y-78109018D01*
X73903068Y-78109008D01*
X73795843Y-77898567D01*
X73657606Y-77708301D01*
X73591328Y-77582690D01*
X73563122Y-77443489D01*
X73575276Y-77301979D01*
X73626805Y-77169626D01*
X73657602Y-77121704D01*
X73795843Y-76931433D01*
X73903068Y-76720992D01*
X73976053Y-76496368D01*
X74013000Y-76263092D01*
X74013000Y-76026908D01*
X73976053Y-75793632D01*
X73903068Y-75569008D01*
X73795843Y-75358567D01*
X73657606Y-75168301D01*
X73591328Y-75042690D01*
X73563122Y-74903489D01*
X73575276Y-74761979D01*
X73626805Y-74629626D01*
X73657602Y-74581704D01*
X73795843Y-74391433D01*
X73903068Y-74180992D01*
X73976053Y-73956368D01*
X74013000Y-73723092D01*
X74013000Y-73486908D01*
X73976053Y-73253632D01*
X73903068Y-73029008D01*
X73795843Y-72818567D01*
X73657606Y-72628301D01*
X73591328Y-72502690D01*
X73563122Y-72363489D01*
X73575276Y-72221979D01*
X73626805Y-72089626D01*
X73657602Y-72041704D01*
X73795843Y-71851433D01*
X73903068Y-71640992D01*
X73976053Y-71416368D01*
X74013000Y-71183092D01*
X74013000Y-70946908D01*
X73976053Y-70713632D01*
X73943619Y-70613810D01*
X73903072Y-70489020D01*
X73903071Y-70489018D01*
X73903068Y-70489008D01*
X73795843Y-70278567D01*
X73698380Y-70144421D01*
X73657018Y-70087491D01*
X73657012Y-70087484D01*
X73490015Y-69920487D01*
X73490008Y-69920481D01*
X73298940Y-69781662D01*
X73298938Y-69781661D01*
X73298933Y-69781657D01*
X73298930Y-69781655D01*
X73298928Y-69781654D01*
X73088496Y-69674434D01*
X73088495Y-69674433D01*
X73088492Y-69674432D01*
X73088487Y-69674430D01*
X73088479Y-69674427D01*
X72863873Y-69601448D01*
X72863867Y-69601446D01*
X72630592Y-69564500D01*
X72394408Y-69564500D01*
X72161132Y-69601446D01*
X72018477Y-69647798D01*
X71878527Y-69672017D01*
X71737423Y-69655826D01*
X71606595Y-69600537D01*
X71496644Y-69510630D01*
X71416477Y-69393388D01*
X71372587Y-69258309D01*
X71368532Y-69116337D01*
X71389699Y-69019027D01*
X71436053Y-68876368D01*
X71473000Y-68643092D01*
X71473000Y-68406908D01*
X71469718Y-68386189D01*
X71436053Y-68173632D01*
X71436051Y-68173626D01*
X71363072Y-67949020D01*
X71363071Y-67949018D01*
X71363068Y-67949008D01*
X71255843Y-67738567D01*
X71119834Y-67551367D01*
X71117018Y-67547491D01*
X71117012Y-67547484D01*
X70950015Y-67380487D01*
X70950008Y-67380481D01*
X70758940Y-67241662D01*
X70758938Y-67241661D01*
X70758933Y-67241657D01*
X70758930Y-67241655D01*
X70758928Y-67241654D01*
X70548496Y-67134434D01*
X70548495Y-67134433D01*
X70548492Y-67134432D01*
X70548487Y-67134430D01*
X70548479Y-67134427D01*
X70323873Y-67061448D01*
X70323867Y-67061446D01*
X70090592Y-67024500D01*
X69854408Y-67024500D01*
X69621132Y-67061446D01*
X69621126Y-67061448D01*
X69396520Y-67134427D01*
X69396503Y-67134434D01*
X69186071Y-67241654D01*
X69186059Y-67241662D01*
X68994991Y-67380481D01*
X68994984Y-67380487D01*
X68827987Y-67547484D01*
X68827981Y-67547491D01*
X68689162Y-67738559D01*
X68689154Y-67738571D01*
X68581934Y-67949003D01*
X68581927Y-67949020D01*
X68508948Y-68173626D01*
X68508946Y-68173632D01*
X68472000Y-68406907D01*
X29540500Y-68406907D01*
X29540500Y-60859567D01*
X40499500Y-60859567D01*
X40499500Y-61140432D01*
X40530943Y-61419503D01*
X40530945Y-61419513D01*
X40593437Y-61693308D01*
X40593439Y-61693314D01*
X40593440Y-61693318D01*
X40686199Y-61958408D01*
X40808055Y-62211445D01*
X40957477Y-62449248D01*
X40957479Y-62449251D01*
X40957482Y-62449255D01*
X41132574Y-62668814D01*
X41132585Y-62668826D01*
X41331173Y-62867414D01*
X41331185Y-62867425D01*
X41550744Y-63042517D01*
X41550752Y-63042523D01*
X41788555Y-63191945D01*
X42041592Y-63313801D01*
X42306682Y-63406560D01*
X42306691Y-63406562D01*
X42580486Y-63469054D01*
X42580496Y-63469056D01*
X42808147Y-63494705D01*
X42859575Y-63500500D01*
X42859576Y-63500500D01*
X43140424Y-63500500D01*
X43140425Y-63500500D01*
X43250595Y-63488086D01*
X43419503Y-63469056D01*
X43419506Y-63469055D01*
X43419509Y-63469055D01*
X43693318Y-63406560D01*
X43958408Y-63313801D01*
X44211445Y-63191945D01*
X44449248Y-63042523D01*
X44668825Y-62867416D01*
X44867416Y-62668825D01*
X44879598Y-62653550D01*
X44972985Y-62536446D01*
X45042523Y-62449248D01*
X45191945Y-62211445D01*
X45313801Y-61958408D01*
X45406560Y-61693318D01*
X45469055Y-61419509D01*
X45500500Y-61140425D01*
X45500500Y-60859575D01*
X45469055Y-60580491D01*
X45406560Y-60306682D01*
X45313801Y-60041592D01*
X45191945Y-59788555D01*
X45042523Y-59550752D01*
X45042517Y-59550744D01*
X44867425Y-59331185D01*
X44867414Y-59331173D01*
X44668826Y-59132585D01*
X44668814Y-59132574D01*
X44449255Y-58957482D01*
X44449251Y-58957479D01*
X44449248Y-58957477D01*
X44211445Y-58808055D01*
X43958408Y-58686199D01*
X43693318Y-58593440D01*
X43693314Y-58593439D01*
X43693308Y-58593437D01*
X43419513Y-58530945D01*
X43419503Y-58530943D01*
X43140432Y-58499500D01*
X43140425Y-58499500D01*
X42859575Y-58499500D01*
X42859567Y-58499500D01*
X42580496Y-58530943D01*
X42580486Y-58530945D01*
X42306691Y-58593437D01*
X42306679Y-58593441D01*
X42041597Y-58686197D01*
X42041595Y-58686197D01*
X42041592Y-58686199D01*
X41920543Y-58744492D01*
X41788552Y-58808056D01*
X41550744Y-58957482D01*
X41331185Y-59132574D01*
X41331173Y-59132585D01*
X41132585Y-59331173D01*
X41132574Y-59331185D01*
X40957482Y-59550744D01*
X40808056Y-59788552D01*
X40808055Y-59788555D01*
X40733833Y-59942680D01*
X40686197Y-60041597D01*
X40593441Y-60306679D01*
X40593437Y-60306691D01*
X40530945Y-60580486D01*
X40530943Y-60580496D01*
X40499500Y-60859567D01*
X29540500Y-60859567D01*
X29540500Y-39039500D01*
X29560713Y-38898915D01*
X29619714Y-38769720D01*
X29712724Y-38662381D01*
X29832208Y-38585594D01*
X29968485Y-38545579D01*
X30039500Y-38540500D01*
X61560500Y-38540500D01*
X61701085Y-38560713D01*
G37*
G04 #@! TD.AperFunction*
G04 #@! TD*
M02*
