M48
; DRILL file KiCad 10.0.0-10.0.0~ubuntu24.04.1 date 2026-04-12T20:48:36
; FORMAT={-:-/ absolute / metric / decimal}
; #@! TF.CreationDate,2026-04-12T20:48:36+01:00
; #@! TF.GenerationSoftware,Kicad,Pcbnew,10.0.0-10.0.0~ubuntu24.04.1
; #@! TF.FileFunction,Plated,1,2,PTH
FMAT,2
METRIC
; #@! TA.AperFunction,Plated,PTH,ComponentDrill
T1C0.800
; #@! TA.AperFunction,Plated,PTH,ComponentDrill
T2C0.900
; #@! TA.AperFunction,Plated,PTH,ViaDrill
T3C1.000
; #@! TA.AperFunction,Plated,PTH,ComponentDrill
T4C1.000
; #@! TA.AperFunction,Plated,PTH,ComponentDrill
T5C1.200
; #@! TA.AperFunction,Plated,PTH,ComponentDrill
T6C1.250
; #@! TA.AperFunction,Plated,PTH,ComponentDrill
T7C1.300
; #@! TA.AperFunction,Plated,PTH,ComponentDrill
T8C2.500
%
G90
G05
T1
X56.2Y-81.6
X58.7Y-81.6
X60.0Y-111.6
X60.0Y-114.1
X181.95Y-67.2
X184.45Y-67.2
X197.0Y-80.92
X197.0Y-91.08
X199.5Y-124.0
X200.25Y-71.75
X202.0Y-124.0
X202.75Y-71.75
T2
X188.225Y-91.0
X190.765Y-91.0
T3
X55.25Y-96.8
X57.0Y-108.0
X60.2Y-103.6
X64.0Y-111.415
X65.6Y-114.324
X66.1Y-76.0
X66.1Y-81.5
X66.1Y-101.5
X76.1Y-106.5
X76.6Y-86.0
X156.0Y-82.5
X156.0Y-114.5
X156.0Y-119.0
X184.8Y-91.0
X191.5Y-66.5
X196.0Y-51.2
X196.0Y-71.5
X201.5Y-58.5
X202.0Y-129.0
X203.5Y-109.0
X205.0Y-60.5
X205.5Y-120.0
T4
X58.5Y-87.96
X58.5Y-90.5
X58.5Y-93.04
X58.5Y-95.58
X58.5Y-98.12
X69.972Y-68.525
X69.972Y-71.065
X69.972Y-73.605
X69.972Y-76.145
X69.972Y-78.685
X69.972Y-81.225
X69.972Y-83.765
X69.972Y-86.305
X69.972Y-88.845
X69.972Y-91.385
X69.972Y-93.925
X69.972Y-96.465
X69.972Y-99.005
X69.972Y-101.545
X69.972Y-104.085
X69.972Y-106.625
X69.972Y-109.165
X69.972Y-111.705
X69.972Y-114.245
X69.972Y-116.785
X72.513Y-68.525
X72.513Y-71.065
X72.513Y-73.605
X72.513Y-76.145
X72.513Y-78.685
X72.513Y-81.225
X72.513Y-83.765
X72.513Y-86.305
X72.513Y-88.845
X72.513Y-91.385
X72.513Y-93.925
X72.513Y-96.465
X72.513Y-99.005
X72.513Y-101.545
X72.513Y-104.085
X72.513Y-106.625
X72.513Y-109.165
X72.513Y-111.705
X72.513Y-114.245
X72.513Y-116.785
X201.5Y-61.42
X201.5Y-63.96
X201.5Y-66.5
X202.0Y-114.5
X202.0Y-117.04
X202.0Y-119.58
T5
X184.276Y-51.4
X189.276Y-51.4
T6
X151.0Y-46.0
X151.0Y-108.0
X159.5Y-117.5
X159.5Y-120.5
X165.0Y-46.0
X165.0Y-108.0
X177.0Y-117.5
X177.0Y-120.5
T7
X189.6Y-106.2
X189.6Y-128.7
T8
X166.0Y-118.0
X170.5Y-118.0
X190.0Y-138.0
X194.699Y-138.0
X199.398Y-138.0
M30
